<?xml version="1.0" encoding="UTF-8"?>
<svg width="74px" height="82px" viewBox="0 0 74 82" version="1.1" xmlns="http://www.w3.org/2000/svg" xmlns:xlink="http://www.w3.org/1999/xlink">
    <title>A4207105-719A-483A-B9A8-5534E2CEF8A8</title>
    <g id="Booking-Page" stroke="none" stroke-width="1" fill="none" fill-rule="evenodd">
        <g id="Confirmation-and-prep" transform="translate(-398.000000, -874.000000)" fill-rule="nonzero">
            <g id="hair-dryer" transform="translate(398.000000, 874.000000)">
                <path d="M67.8872575,82 L51.4670465,82 C50.6567967,82 50,81.247693 50,80.3199933 C50,79.3922936 50.6567967,78.6399866 51.4670465,78.6399866 L67.8874042,78.6399866 C69.6399379,78.6399866 71.0659071,77.00702 71.0659071,74.999916 C71.0659071,72.99298 69.6399379,71.3600134 67.8872575,71.3600134 L59.2177464,71.3600134 C58.4074966,71.3600134 57.7506999,70.6078744 57.7506999,69.6800067 C57.7506999,68.752307 58.4074966,68 59.2177464,68 L67.8872575,68 C71.2577967,68 74,71.1401006 74,74.999916 C74,78.8598994 71.2579434,82 67.8872575,82 Z" id="Shape" fill="#000000"></path>
                <path d="M54.5,72 C54.1055,72 53.7185,71.8395 53.4395,71.5605 C53.3705,71.49135 53.3075,71.41485 53.252,71.33235 C53.198,71.25135 53.1515,71.16435 53.114,71.073 C53.0765,70.98285 53.048,70.8885 53.0285,70.7925 C53.009,70.69635 53,70.59735 53,70.5 C53,70.4025 53.009,70.3035 53.0285,70.206 C53.048,70.10985 53.0765,70.017 53.114,69.9255 C53.1515,69.8355 53.198,69.7485 53.252,69.6675 C53.3075,69.58485 53.3705,69.5085 53.4395,69.4395 C53.7185,69.159 54.1055,69 54.5,69 C54.8945,69 55.2815,69.159 55.5605,69.4395 C55.6295,69.5085 55.6925,69.585 55.7465,69.6675 C55.8005,69.7485 55.847,69.8355 55.8845,69.9255 C55.922,70.017 55.952,70.10985 55.97,70.206 C55.9895,70.30335 56,70.4025 56,70.5 C56,70.59735 55.9895,70.6965 55.97,70.7925 C55.952,70.8885 55.922,70.983 55.8845,71.073 C55.847,71.16435 55.8005,71.25135 55.7465,71.33235 C55.6925,71.41485 55.6295,71.49135 55.5605,71.5605 C55.2815,71.8395 54.8945,72 54.5,72 Z" id="Shape" fill="#000000"></path>
                <path d="M53,11.4843552 C49.3983484,10.1737979 30.1700502,2 22.4063679,2 L21.5070405,2 L21.5068958,2 L21.505738,2 C21.1948665,2 20.8858764,2.00803038 20.5786231,2.02264566 C20.5640058,2.02328809 20.5493885,2.0236093 20.5347711,2.02425173 C20.2357672,2.03902762 19.9389341,2.06135207 19.6435483,2.08945838 C19.6216947,2.09154628 19.5996964,2.09315235 19.5778427,2.09524025 C19.2870882,2.123989 18.9985045,2.15964386 18.7116575,2.20091999 C18.6867647,2.20461397 18.6615823,2.20782612 18.6366895,2.21152009 C18.3515792,2.25375986 18.0686399,2.30274515 17.7875819,2.3571911 C17.7625443,2.36200932 17.7375067,2.36666694 17.7124691,2.37164577 C17.4303981,2.42753719 17.1507875,2.48969229 16.873203,2.55762927 C16.8514941,2.56292932 16.8297852,2.56806876 16.8080763,2.57352941 C16.5268736,2.64339368 16.2479866,2.71936103 15.9717046,2.80127086 C15.9560742,2.80592848 15.9405886,2.81058609 15.9249581,2.81524371 C15.6425977,2.89972326 15.362987,2.9903059 15.0861262,3.08715222 C15.0787451,3.08972194 15.0715088,3.09229166 15.0641278,3.09486138 C7.46934079,5.76094602 2.00955192,13.0001688 2,21.4765513 L2,21.4995182 L2,21.5 L2,21.5004818 L2,21.5234487 C2.00955192,29.9999918 7.46948551,37.2392146 15.0642725,39.9051386 C15.0715088,39.9077083 15.0786004,39.9102781 15.0858367,39.9126872 C15.3626976,40.0095335 15.642453,40.1001161 15.9249581,40.1847563 C15.9404438,40.1894139 15.9560742,40.1940715 15.9717046,40.1987291 C16.2479866,40.2807996 16.5268736,40.3566063 16.8080763,40.4266312 C16.8297852,40.4319312 16.8514941,40.4372313 16.873203,40.4425313 C17.1507875,40.5104683 17.4303981,40.5726234 17.7124691,40.6283542 C17.7375067,40.6333331 17.7625443,40.6379907 17.7875819,40.6428089 C18.0686399,40.6974155 18.3515792,40.7462401 18.6366895,40.7884799 C18.6615823,40.7921739 18.6866199,40.795386 18.7116575,40.79908 C18.9985045,40.8403561 19.2872329,40.8761716 19.5778427,40.9047597 C19.5996964,40.9070083 19.6216947,40.9084537 19.6435483,40.9107022 C19.9387894,40.9388085 20.2357672,40.961133 20.5347711,40.9759089 C20.5493885,40.9765513 20.5640058,40.9768725 20.5786231,40.9775149 C20.8860212,40.9919696 21.1950112,41 21.505738,41 L21.5068958,41 L21.5070405,41 L21.5144215,41 C21.5921394,41 21.6695678,40.9998394 21.746562,40.9995182 C21.7839014,40.9993576 21.8209512,40.9990364 21.8580011,40.9988757 C21.8975113,40.9985545 21.9370215,40.9982333 21.9762422,40.9979121 C22.0263174,40.9974303 22.0762479,40.9967878 22.1260337,40.9961454 C22.1499134,40.9958242 22.173938,40.995503 22.1978178,40.9951818 C22.2578791,40.9943787 22.3177956,40.9932545 22.3775675,40.9921302 C22.3852379,40.9919696 22.3930532,40.9916484 22.4007236,40.9916484 C30.1644059,40.9916484 49.3982037,32.8263627 53,31.5158054 L53,11.4843552 L53,11.4843552 Z" id="Shape" fill="#006597"></path>
                <path d="M26.5812339,39.1286674 C25.046114,39.4290939 23.6696293,39.6032542 22.5374112,39.6032542 C22.5297189,39.6032542 22.5218815,39.6035767 22.5141892,39.6037379 C22.4542474,39.6048668 22.3941605,39.6059956 22.3339284,39.6068019 C22.3099807,39.6071244 22.2858878,39.6074469 22.2619401,39.6077694 C22.2120128,39.6084145 22.1619404,39.6090595 22.1117228,39.6095433 C22.0723905,39.6098658 22.0326228,39.6101883 21.9931454,39.6105108 C21.955845,39.6106721 21.9188349,39.6109946 21.8813895,39.6111559 C21.8041763,39.6114784 21.7265277,39.6116397 21.6485888,39.6116397 L21.6411868,39.6116397 L21.6410417,39.6116397 L21.6398806,39.6116397 C21.3281251,39.6116397 21.0182564,39.6034154 20.7101293,39.5890633 C20.6954704,39.5884183 20.6808116,39.5880958 20.6661527,39.5874507 C20.3662985,39.5726149 20.0686213,39.5501998 19.7723956,39.5219794 C19.7504798,39.519883 19.7284189,39.5182704 19.7065031,39.5160128 C19.4149218,39.4873086 19.1255175,39.4513477 18.8378548,39.4097428 C18.8128912,39.4060338 18.7876372,39.4028086 18.7626736,39.3992609 C18.4767526,39.3568496 18.1930086,39.3078268 17.9111515,39.2529985 C17.8860427,39.2481607 17.8609339,39.2434842 17.8358251,39.2384852 C17.552952,39.1825281 17.2725462,39.1199594 16.9941724,39.0519079 C16.9724018,39.0465864 16.9506311,39.0412648 16.9288605,39.0359432 C16.6468582,38.9657953 16.3671781,38.8895196 16.0901105,38.8072773 C16.0744357,38.8026007 16.058906,38.7979242 16.0432311,38.7932477 C15.7600677,38.7084252 15.4795168,38.6173136 15.2017235,38.5200741 C15.1944666,38.5174939 15.1873549,38.5149138 15.180098,38.5124949 C11.9976667,37.393999 9.19230285,35.477591 7,33 L16.3188473,66.3302431 C17.716522,71.3297715 22.4973533,74.1237536 26.997053,72.5708246 L26.997053,72.5708246 C31.4967528,71.0178956 34.0114062,65.7060075 32.6137315,60.7064791 L26.5812339,39.1286674 Z" id="Shape" fill="#00ABD5"></path>
                <path d="M29.8113888,44 L27,44 L30.2180367,55 C32.8933278,54.7795871 35,52.4063375 35,49.5092103 L35,49.5092103 C35,46.4666234 32.6769176,44 29.8113888,44 Z" id="Shape" fill="#006597"></path>
                <ellipse id="Oval" fill="#F9545B" cx="20" cy="21" rx="10" ry="11"></ellipse>
                <polygon id="Shape" fill="#00ABD5" points="66 40 53 31.010045 53 10.9917207 66 2"></polygon>
                <path d="M45.5,23 C45.401,23 45.3035,22.9908477 45.206,22.9713428 C45.11,22.951838 45.0155,22.9233308 44.9255,22.8858215 C44.8355,22.8483121 44.7485,22.8018005 44.666,22.7477869 C44.585,22.6922731 44.5085,22.6292573 44.438,22.5602401 C44.159,22.2813203 44,21.8940735 44,21.4996249 C44,21.4021005 44.009,21.3044261 44.0285,21.2070518 C44.048,21.1108777 44.0765,21.0163541 44.114,20.9264816 C44.1515,20.8349587 44.198,20.747937 44.252,20.6669167 C44.306,20.5843961 44.369,20.507877 44.438,20.4388597 C44.5085,20.3698425 44.585,20.3068267 44.666,20.2528132 C44.7485,20.1989497 44.8355,20.1522881 44.9255,20.1147787 C45.0155,20.0772693 45.11,20.0487622 45.206,20.0292573 C45.3995,19.9902476 45.599,19.9902476 45.7925,20.0292573 C45.8885,20.0489122 45.983,20.0772693 46.073,20.1147787 C46.163,20.1522881 46.25,20.1987997 46.3325,20.2528132 C46.4135,20.3068267 46.4915,20.3698425 46.5605,20.4388597 C46.6295,20.507877 46.6925,20.5843961 46.7465,20.6669167 C46.8005,20.747937 46.847,20.8349587 46.8845,20.9264816 C46.922,21.0165041 46.9505,21.1110278 46.97,21.2070518 C46.9895,21.3044261 47,21.4021005 47,21.4996249 C47,21.8957239 46.8395,22.2813203 46.5605,22.5602401 C46.4915,22.6292573 46.4135,22.6922731 46.3325,22.7477869 C46.25,22.8018005 46.163,22.8483121 46.073,22.8858215 C45.983,22.9233308 45.8885,22.951838 45.7925,22.9713428 C45.6965,22.9908477 45.5975,23 45.5,23 Z" id="Shape" fill="#000000"></path>
                <path d="M65.2539592,0.682175129 C64.7940514,0.402218373 64.2332652,0.423446565 63.7915815,0.738038792 L51.8113058,9.26427024 C51.2609949,9.05214793 50.5363352,8.76532793 49.689416,8.43030556 C42.7734357,5.69394374 28.3819803,0 21.6680437,0 L20.7752055,0 C20.4615211,0 20.131765,0.00814013373 19.7925382,0.0237819593 L19.7486281,0.0255376745 C19.4447015,0.0405410582 19.13647,0.0630461338 18.8087229,0.0944893955 L18.7362569,0.100873814 C18.4406531,0.13024214 18.1322781,0.16791021 17.8191677,0.213239582 L17.7405314,0.224252704 C17.4495195,0.267347529 17.1470279,0.319380541 16.8415228,0.378755634 L16.761882,0.394237849 C16.4682872,0.452495669 16.169096,0.518893623 15.8714832,0.591835605 L15.8040397,0.608594704 C15.5104448,0.681536687 15.2121146,0.763097635 14.9119189,0.852160274 L14.8678654,0.865248333 C14.5668087,0.955587856 14.2673305,1.05295024 13.9877984,1.15111068 L13.9552246,1.16244302 C5.61819368,4.09592376 0.0100447885,12.0477171 0,20.9517466 L0,21.0004278 C0.00573987911,26.1231256 1.86574771,30.9309121 5.03229552,34.6490379 L14.1436361,67.2729382 C14.9256947,70.0733038 16.6413445,72.367385 18.9746054,73.7325333 C20.4123016,74.5736804 21.9778536,75 23.5573249,75 C24.5412836,75 25.5306953,74.8343243 26.4971475,74.5004192 C28.1505196,73.9291734 29.5717137,72.9145297 30.6908466,71.6121083 L47.9621429,71.6121083 C48.7546767,71.6121083 49.3971127,70.8975322 49.3971127,70.0160036 C49.3971127,69.1346346 48.7546767,68.419899 47.9621429,68.419899 L32.6028004,68.419899 C33.5251989,66.0830421 33.7278167,63.3825927 32.9952646,60.7595543 L31.9038266,56.851492 C34.3554725,55.8365291 36.0978128,53.1943374 36.0978128,50.1634943 C36.0978128,46.230054 33.2208418,43.0301834 29.6845023,43.0301834 L28.0440449,43.0301834 L27.5060747,41.1036851 C34.7648693,39.4185178 44.4183415,35.6030296 49.7059182,33.5129306 C50.5450885,33.18126 51.2631474,32.897313 51.8097274,32.6867868 L63.7918685,41.2123798 C64.0270601,41.3796516 64.2958299,41.4639259 64.5651737,41.4639259 C64.8018002,41.4639259 65.0390007,41.3989644 65.2541027,41.2677646 C65.7140105,40.9878079 66,40.4510379 66,39.8678213 L66,2.08243774 C66,1.4992211 65.7140105,0.962291496 65.2539592,0.682175129 Z M29.6845023,46.2220735 C31.6383572,46.2220735 33.2278732,47.9900786 33.2278732,50.1631751 C33.2278732,51.7797099 32.3311606,53.1968912 31.051024,53.7971862 L30.7582902,52.7488646 L28.9355916,46.2220735 L29.6845023,46.2220735 Z M24.6592382,41.6703022 L25.616363,45.0976178 C25.6165065,45.0982562 25.61665,45.098735 25.6167935,45.0993735 L28.704418,56.1555904 C28.7045615,56.1560692 28.704705,56.1563885 28.7048485,56.1568673 L30.2546158,61.706204 C31.3995782,65.8062776 29.3320737,70.1781678 25.6460669,71.4518594 C21.959773,72.725072 18.0295343,70.4257237 16.8845719,66.3258097 L9.05351133,38.28672 C10.1742227,39.0616288 11.3790234,39.7313543 12.6567204,40.2800951 C12.6641823,40.2832873 12.6715006,40.2864795 12.6789625,40.2896717 C12.8756968,40.3737864 13.0741532,40.4553474 13.2743314,40.5337161 C13.3037483,40.5452081 13.3333087,40.5563808 13.3627256,40.5678728 C13.5555855,40.6424108 13.7494499,40.7150336 13.9453233,40.7839853 C13.9486237,40.7852622 13.9519242,40.7865391 13.9553681,40.7876564 C13.9556551,40.7876564 13.9603905,40.7894121 13.9648389,40.7910082 C13.9704353,40.7929235 13.9760317,40.7949984 13.9786146,40.7957965 C14.2709179,40.8982664 14.5699656,40.9953096 14.863991,41.0835742 L14.9170848,41.0995352 C15.0798104,41.1480568 15.2446884,41.1941842 15.4092795,41.2387155 C15.5410097,41.2743087 15.6734574,41.3092634 15.8069096,41.342622 L15.8729182,41.3587426 C16.1580467,41.428652 16.4418837,41.4915385 16.715102,41.5462849 C16.7293082,41.5491579 16.7438014,41.5525097 16.7580076,41.5553827 L16.8410923,41.5715034 C17.1454494,41.6307188 17.4480845,41.6827519 17.7370874,41.7256871 L17.8195982,41.737179 C18.1322781,41.7825084 18.4407966,41.8201765 18.7343914,41.8492256 L18.7381224,41.8495448 C18.7398443,41.8497044 18.7417098,41.8500236 18.7434318,41.8501832 L18.8061399,41.8557696 C19.13647,41.8872129 19.4447015,41.9098775 19.7568074,41.9252002 L19.7951211,41.9266366 C20.131765,41.9424381 20.4615211,41.9504186 20.7836718,41.9504186 L21.6658912,41.9421189 C21.6670392,41.9421189 21.6706266,41.9421189 21.674501,41.9419593 L21.677371,41.9419593 C22.5357699,41.9405228 23.5190112,41.8514601 24.6592382,41.6703022 Z M48.7447754,30.5045925 C43.5603731,32.5538313 32.598065,36.8869362 25.4661217,38.2959774 C25.448041,38.2986908 25.4299604,38.3001273 25.4117363,38.3037983 C24.1097882,38.5588558 22.9936687,38.7047398 22.0836109,38.7403329 C22.0626603,38.741131 22.0414228,38.7422483 22.0206157,38.7428867 C21.8976388,38.7470366 21.7776753,38.7495903 21.6625908,38.7495903 L20.7752055,38.7580497 C20.5018437,38.7580497 20.2128408,38.7510268 19.9114972,38.7368215 L19.8759099,38.7355446 C19.7459016,38.7291602 19.6146019,38.7210201 19.4808627,38.7112838 C19.4769883,38.7109646 19.4729704,38.710805 19.469096,38.7104858 C19.3413837,38.7010688 19.2110884,38.6900556 19.0780667,38.677606 C19.0681654,38.6766484 19.0586946,38.6758503 19.0486498,38.6748926 L18.990677,38.6697851 C18.7335305,38.644407 18.4641866,38.6113677 18.1901074,38.5717843 L18.1200809,38.562048 C17.8659477,38.52438 17.6022003,38.478891 17.3276906,38.4255811 L17.2654129,38.4136103 C17.2520677,38.4108969 17.238005,38.4077047 17.2246597,38.4049913 C16.9821498,38.3563101 16.7357655,38.3017234 16.4922512,38.2420291 L16.430404,38.2268661 C16.3147454,38.1981362 16.1986563,38.167491 16.0825673,38.1360477 C15.9389268,38.0972624 15.7954298,38.0568809 15.6522199,38.0141053 L15.6153411,38.0030922 C15.3557551,37.9253619 15.0951646,37.8404491 14.8427534,37.7521845 C14.839166,37.7509077 14.8248163,37.7458001 14.8210854,37.7445232 C14.6177501,37.6730177 14.4169979,37.5970432 14.2175371,37.518834 C14.1443536,37.4901042 14.0717441,37.4596186 13.9989912,37.4297714 C13.8785972,37.380771 13.7589207,37.3308129 13.6399617,37.2792587 C13.5438188,37.2374408 13.4481063,37.1948248 13.3526808,37.1514107 C13.2658651,37.111987 13.1796234,37.0714459 13.0935252,37.0305856 C12.9788712,36.9761585 12.8642171,36.9217313 12.7508545,36.86491 C12.7076619,36.8433625 12.6651868,36.8206979 12.6221377,36.7988312 C10.9737879,35.956088 9.45802931,34.8603621 8.1382876,33.5526736 C8.12164195,33.5362337 8.1049963,33.5197938 8.08849415,33.5031943 C7.97254859,33.3873171 7.858325,33.2698438 7.74553637,33.1507744 C7.71497152,33.1185331 7.68469366,33.085813 7.65441579,33.0532524 C7.55038048,32.9418443 7.44734965,32.8296382 7.34604079,32.7153571 C4.87129191,29.9213759 3.29196417,26.382333 2.94484498,22.571314 L9.40364395,22.571314 C10.111658,28.7884608 14.8929773,33.6128467 20.6716006,33.6128467 C26.4502239,33.6128467 31.2313997,28.7884608 31.9394138,22.571314 L39.5240901,22.571314 C40.3166239,22.571314 40.9590599,21.8565783 40.9590599,20.9752093 C40.9590599,20.0938403 40.3166239,19.3791046 39.5240901,19.3791046 L31.9394138,19.3791046 C31.2313997,13.1621174 26.4500804,8.33773149 20.6716006,8.33773149 C14.8929773,8.33773149 10.1118015,13.1621174 9.40364395,19.3791046 L2.94498848,19.3791046 C3.57006131,12.5209622 8.18391964,6.54147531 14.8098926,4.21004524 L14.8414619,4.19919173 C15.0925816,4.11092715 15.3528852,4.02649321 15.6192155,3.94652837 L15.6581032,3.9348768 C15.9149628,3.858583 16.1748358,3.78771595 16.4362873,3.72275449 L16.4908162,3.70934721 C16.7495412,3.64582225 17.0104188,3.58788365 17.2701483,3.53648908 L17.3354394,3.52372024 C17.6030613,3.47184684 17.8670957,3.42651747 18.1238118,3.38837057 L18.1899639,3.37895355 C18.4643301,3.33937016 18.733674,3.30633079 18.992399,3.28079312 L19.0513763,3.27568558 C19.3421011,3.24791336 19.612019,3.22812166 19.8757664,3.21519321 L19.9168065,3.21359711 C20.2131278,3.19955139 20.5021307,3.19252853 20.7766404,3.19252853 L21.6680437,3.19252853 C27.8867722,3.19252853 42.4913206,8.97074659 48.7276993,11.4381648 C49.4324129,11.7170043 50.0536113,11.9626448 50.5669,12.1626367 L50.5669,29.7877819 C50.0577728,29.9855393 49.4424577,30.2289453 48.7447754,30.5045925 Z M29.0394834,22.5709947 C28.3552898,27.0214133 24.8645823,30.4203182 20.6714571,30.4203182 C16.478332,30.4203182 12.9876245,27.0214133 12.3034309,22.5709947 L29.0394834,22.5709947 Z M12.3034309,19.3787854 C12.9876245,14.9285264 16.478332,11.5296216 20.6714571,11.5296216 C24.8645823,11.5296216 28.3552898,14.9285264 29.0394834,19.3787854 C29.0394834,19.3787854 12.3034309,19.3787854 12.3034309,19.3787854 Z M63.1300604,36.9517381 L53.4368396,30.0548102 L53.4368396,11.8970449 L63.1300604,4.99852094 L63.1300604,36.9517381 Z" id="Shape" fill="#000000"></path>
                <ellipse id="Oval" fill="#006597" cx="23" cy="63.5" rx="4" ry="4.5"></ellipse>
                <path d="M24,69 C21.2429868,69 19,66.308453 19,63.0000828 C19,59.6917125 21.2429868,57 24,57 C26.7570132,57 29,59.6917125 29,63.0000828 C29,66.308453 26.7570132,69 24,69 Z M24,60.3100252 C22.7639644,60.3100252 21.7583924,61.5166949 21.7583924,63.0000828 C21.7583924,64.4833051 22.7639644,65.6899748 24,65.6899748 C25.2360356,65.6899748 26.2416076,64.4833051 26.2416076,63.0000828 C26.2416076,61.5166949 25.2360356,60.3100252 24,60.3100252 Z" id="Shape" fill="#000000"></path>
            </g>
        </g>
    </g>
</svg>