<?xml version="1.0" encoding="UTF-8"?>
<svg width="1216px" height="347px" viewBox="0 0 1216 347" version="1.1" xmlns="http://www.w3.org/2000/svg" xmlns:xlink="http://www.w3.org/1999/xlink">
    <title>FCCC5A2B-A2DF-4612-8E3D-2C67FB31854D</title>
    <defs>
        <linearGradient x1="49.325979%" y1="0%" x2="49.325979%" y2="136.983809%" id="linearGradient-1">
            <stop stop-color="#D0BDF4" offset="0%"></stop>
            <stop stop-color="#FFF4E5" stop-opacity="0" offset="100%"></stop>
        </linearGradient>
        <path d="M1215.45423,1.42108547e-13 L0.566762761,1.42108547e-13 L0.566762761,269.608574 C0.566762761,278.63467 15.3422241,285.951077 33.5679659,285.951077 L37.8978248,285.951077 C56.1235666,285.951077 70.8990279,293.267484 70.8990279,302.292376 C70.8990279,308.131304 77.1897152,313.525064 87.3996295,316.443926 L185.455627,344.47752 C195.665541,347.396382 208.246915,347.396382 218.45683,344.47752 L316.512827,316.443926 C326.725171,313.525064 333.013428,308.131304 333.013428,302.292376 C333.013428,293.267484 347.78889,285.951077 366.014632,285.951077 L443.949662,285.951077 C462.177834,285.951077 476.953295,293.267484 476.953295,302.292376 C476.953295,308.131304 483.241553,313.525064 493.453897,316.443926 L591.509894,344.47752 C601.719808,347.396382 614.301183,347.396382 624.511097,344.47752 L722.567094,316.443926 C732.779438,313.525064 739.067696,308.131304 739.067696,302.292376 C739.067696,293.267484 753.845587,285.951077 772.071329,285.951077 L850.815475,285.951077 C869.041216,285.951077 883.816678,293.267484 883.816678,302.292376 C883.816678,308.131304 890.107365,313.525064 900.317279,316.443926 L998.373277,344.47752 C1008.58319,347.396382 1021.16457,347.396382 1031.37448,344.47752 L1129.43048,316.443926 C1139.64282,313.525064 1145.93351,308.131304 1145.93351,302.292376 C1145.93351,293.267484 1160.70654,285.951077 1178.93471,285.951077 L1182.45303,285.951077 C1200.67877,285.951077 1215.45423,278.63467 1215.45423,269.608574 L1215.45423,1.42108547e-13 Z" id="path-2"></path>
    </defs>
    <g id="Booking-Page" stroke="none" stroke-width="1" fill="none" fill-rule="evenodd">
        <g id="Landing-Page" transform="translate(-179.000000, -1913.000000)">
            <g id="Process" transform="translate(179.000000, 1806.000000)">
                <g transform="translate(0.000000, 107.000000)" id="Group-13">
                    <g id="Fill-5">
                        <use fill="#8458B3" xlink:href="#path-2"></use>
                        <use fill="url(#linearGradient-1)" xlink:href="#path-2"></use>
                    </g>
                    <path d="M708.659847,147.274134 C708.659847,135.784436 702.523475,125.169059 692.561266,119.421788 L623.972581,79.8641923 C614.010371,74.1193433 601.737628,74.1193433 591.777843,79.8641923 L523.186733,119.421788 C513.226948,125.169059 507.090576,135.784436 507.090576,147.274134 L507.090576,226.391748 C507.090576,237.881445 513.226948,248.499244 523.186733,254.244093 L591.777843,293.801689 C601.737628,299.54896 614.010371,299.54896 623.972581,293.801689 L692.561266,254.244093 C702.523475,248.499244 708.659847,237.881445 708.659847,226.391748 L708.659847,147.274134 Z" id="Fill-7" fill="#A0D2E8"></path>
                    <g id="working-time" transform="translate(529.341263, 118.888889)" fill-rule="nonzero">
                        <path d="M86.6828152,26.4410342 C85.3791534,26.4410342 84.3229064,25.3858333 84.3229064,24.0841443 L84.3229064,9.17436012 C84.3229064,6.72320685 82.326178,4.72903274 79.8715797,4.72903274 L47.830152,4.72903274 C45.3755537,4.72903274 43.3788253,6.72320685 43.3788253,9.17436012 L43.3788253,24.0841443 C43.3788253,25.3861384 42.3222728,26.4410342 41.0189165,26.4410342 C39.7152547,26.4410342 38.6590077,25.3858333 38.6590077,24.0841443 L38.6590077,9.17436012 C38.6590077,4.12379464 42.7734228,0.0149479167 47.8304575,0.0149479167 L79.8715797,0.0149479167 C84.9286143,0.0149479167 89.0430294,4.12379464 89.0430294,9.17436012 L89.0430294,24.0841443 C89.0430294,25.3858333 87.9864769,26.4410342 86.6828152,26.4410342 L86.6828152,26.4410342 Z" id="Path" fill="#2B4D66"></path>
                        <path d="M119.387375,97.4436384 L17.2918451,97.4436384 C12.3337764,97.4436384 8.31435629,93.4293601 8.31435629,88.4776339 L8.31435629,35.982686 L119.387375,35.982686 L119.387375,97.4436384 Z" id="Path" fill="#FFFFFF"></path>
                        <path d="M8.31435629,63.0216369 C9.78265573,64.5261905 11.8239799,65.4425893 14.0442979,65.4425893 L119.387375,65.4425893 L119.387375,35.982686 L8.31435629,35.982686 L8.31435629,63.0216369 Z" id="Path" fill="#B57AD2"></path>
                        <path d="M120.162608,17.7986979 L7.53942896,17.7986979 C2.68704601,17.7986979 -0.90046739,22.3117485 0.199764475,27.0316295 L6.24737433,52.9748065 C7.09133342,56.595253 10.3223864,59.1571429 14.0446033,59.1571429 L120.013548,59.1571429 L127.502273,27.0313244 C128.602505,22.3117485 125.014686,17.7986979 120.162608,17.7986979 L120.162608,17.7986979 Z" id="Path" fill="#FFFFFF"></path>
                        <path d="M120.162608,17.7986979 L112.13843,17.7986979 C116.990813,17.7986979 120.578326,22.3117485 119.478094,27.0316295 L111.98937,59.1574479 L120.013548,59.1574479 L127.502273,27.0316295 C128.602505,22.3117485 125.014686,17.7986979 120.162608,17.7986979 Z" id="Path" fill="#B57AD2"></path>
                        <ellipse id="Oval" fill="#B57AD2" cx="114.517887" cy="94.8326339" rx="41.87265" ry="41.8190848"></ellipse>
                        <path d="M114.517887,53.0135491 C113.407881,53.0135491 112.307955,53.0574777 111.219635,53.1422842 C132.803362,54.821942 149.794033,72.8451637 149.794033,94.8326339 C149.794033,116.820104 132.803362,134.843326 111.219635,136.523289 C112.307955,136.608095 113.407575,136.652024 114.517887,136.652024 C137.643527,136.652024 156.390537,117.928996 156.390537,94.832939 C156.390537,71.7368824 137.643527,53.0135491 114.517887,53.0135491 L114.517887,53.0135491 Z" id="Path" fill="#B57AD2"></path>
                        <ellipse id="Oval" fill="#F4FBFF" cx="114.517887" cy="94.8326339" rx="31.2325953" ry="31.1926414"></ellipse>
                        <path d="M114.517887,63.6402976 C113.070664,63.6402976 111.647266,63.7406622 110.252274,63.9310193 C125.483246,66.0087798 137.219257,79.0509896 137.219257,94.8326339 C137.219257,110.614278 125.483246,123.656793 110.252274,125.734554 C111.647266,125.924911 113.070664,126.025275 114.517887,126.025275 C131.766969,126.025275 145.750483,112.059955 145.750483,94.8326339 C145.750483,77.6056176 131.766969,63.6402976 114.517887,63.6402976 L114.517887,63.6402976 Z" id="Path" fill="#DAF1F4"></path>
                        <g id="Group" transform="translate(89.191478, 69.553571)" fill="#365E7D">
                            <path d="M25.326409,6.04322917 C24.0227472,6.04322917 22.9665002,4.98802827 22.9665002,3.68633929 L22.9665002,2.60703869 C22.9665002,1.30504464 24.0230527,0.25014881 25.326409,0.25014881 C26.6297653,0.25014881 27.6863177,1.3053497 27.6863177,2.60703869 L27.6863177,3.68633929 C27.6863177,4.98802827 26.6300707,6.04322917 25.326409,6.04322917 Z" id="Path"></path>
                            <path d="M40.6141949,12.3677232 C40.0103197,12.3677232 39.4061391,12.1374033 38.9452146,11.6773735 C38.0236712,10.7567039 38.0236712,9.26465774 38.9452146,8.34368304 L39.7097566,7.58011905 C40.6316055,6.66005952 42.1255628,6.66005952 43.0477172,7.58011905 C43.9692606,8.50078869 43.9692606,9.99283482 43.0477172,10.9138095 L42.2831751,11.6773735 C41.8222507,12.1377083 41.2180701,12.3677232 40.6141949,12.3677232 Z" id="Path"></path>
                            <path d="M48.0277783,27.6362574 L46.9467898,27.6362574 C45.6431281,27.6362574 44.5868811,26.5810565 44.5868811,25.2793676 C44.5868811,23.9776786 45.6434335,22.9224777 46.9467898,22.9224777 L48.0277783,22.9224777 C49.3314401,22.9224777 50.3876871,23.9776786 50.3876871,25.2793676 C50.3876871,26.5810565 49.3314401,27.6362574 48.0277783,27.6362574 Z" id="Path"></path>
                            <path d="M3.70572265,27.6362574 L2.62473415,27.6362574 C1.32107241,27.6362574 0.264825382,26.5810565 0.264825382,25.2793676 C0.264825382,23.9776786 1.32137786,22.9224777 2.62473415,22.9224777 L3.70572265,22.9224777 C5.00938439,22.9224777 6.06563142,23.9776786 6.06563142,25.2793676 C6.06563142,26.5810565 5.00938439,27.6362574 3.70572265,27.6362574 Z" id="Path"></path>
                            <path d="M41.3787369,43.6680506 C40.7748617,43.6680506 40.1709865,43.4380357 39.7103675,42.978006 L38.9458255,42.214747 C38.0239766,41.2943824 38.0236712,39.8020312 38.9449092,38.8813616 C39.8664526,37.9600818 41.3607153,37.9600818 42.2825642,38.8804464 L43.0471063,39.6437054 C43.9689552,40.5640699 43.9692606,42.0564211 43.0480226,42.9770908 C42.5870982,43.4377307 41.9829175,43.6680506 41.3787369,43.6680506 L41.3787369,43.6680506 Z" id="Path"></path>
                            <path d="M25.326409,50.3088914 C24.0227472,50.3088914 22.9665002,49.2536905 22.9665002,47.9520015 L22.9665002,46.8723958 C22.9665002,45.5704018 24.0230527,44.515506 25.326409,44.515506 C26.6297653,44.515506 27.6863177,45.5707068 27.6863177,46.8723958 L27.6863177,47.9520015 C27.6863177,49.2536905 26.6300707,50.3088914 25.326409,50.3088914 Z" id="Path"></path>
                            <path d="M9.27408104,43.6680506 C8.67020586,43.6680506 8.06602523,43.4377307 7.60510077,42.9777009 C6.68355731,42.0570313 6.68355731,40.5649851 7.60510077,39.6440104 L8.36933734,38.8807515 C9.29118625,37.960692 10.7851435,37.960692 11.7072979,38.8807515 C12.6288413,39.8014211 12.6288413,41.2934673 11.7072979,42.214442 L10.9430613,42.9777009 C10.4821368,43.4377307 9.87795621,43.6680506 9.27408104,43.6680506 Z" id="Path"></path>
                            <path d="M10.0383176,12.3677232 C9.43413698,12.3677232 8.82995635,12.1374033 8.36903189,11.6767634 L7.60479532,10.9131994 C6.68355731,9.99283482 6.68386276,8.50048363 7.60571167,7.57981399 C8.52694968,6.66036458 10.0212124,6.6594494 10.9433667,7.58072917 L11.7076033,8.34429315 C12.6288413,9.26465774 12.6285359,10.7570089 11.706687,11.6776786 C11.246068,12.1377083 10.6421928,12.3677232 10.0383176,12.3677232 L10.0383176,12.3677232 Z" id="Path"></path>
                        </g>
                        <path d="M120.950364,97.1898289 L114.517887,97.1898289 C113.214225,97.1898289 112.157978,96.134628 112.157978,94.832939 L112.157978,82.3929167 C112.157978,81.0909226 113.214531,80.0360268 114.517887,80.0360268 C115.821243,80.0360268 116.877796,81.0912277 116.877796,82.3929167 L116.877796,92.475744 L120.950364,92.475744 C122.254026,92.475744 123.310273,93.5309449 123.310273,94.8326339 C123.310273,96.1343229 122.254026,97.1898289 120.950364,97.1898289 Z" id="Path" fill="#2B4D66"></path>
                        <path d="M70.3784908,67.7161979 L57.3232409,67.7161979 C55.3903516,67.7161979 53.8230863,66.1512426 53.8230863,64.2205208 L53.8230863,54.0666146 C53.8230863,52.1361979 55.3900461,50.5709375 57.3232409,50.5709375 L70.3784908,50.5709375 C72.3113801,50.5709375 73.8786454,52.1358929 73.8786454,54.0666146 L73.8786454,64.2205208 C73.8786454,66.1512426 72.3113801,67.7161979 70.3784908,67.7161979 Z" id="Path" fill="#B57AD2"></path>
                        <path d="M70.3784908,50.5709375 L64.3779203,50.5709375 C66.3108096,50.5709375 67.8780749,52.1358929 67.8780749,54.0666146 L67.8780749,64.2205208 C67.8780749,66.1509375 66.311115,67.7161979 64.3779203,67.7161979 L70.3784908,67.7161979 C72.3113801,67.7161979 73.8786454,66.1512426 73.8786454,64.2205208 L73.8786454,54.0666146 C73.8786454,52.1361979 72.3113801,50.5709375 70.3784908,50.5709375 Z" id="Path" fill="#D1B4E0"></path>
                    </g>
                    <path d="M1114.73487,226.391748 L1114.73487,147.274134 C1114.73487,135.784436 1108.5985,125.169059 1098.63629,119.421788 L1030.0476,79.8641923 C1020.08782,74.1193433 1007.81265,74.1193433 997.852865,79.8641923 L929.264181,119.421788 C919.304396,125.169059 913.165599,135.784436 913.165599,147.274134 L913.165599,226.391748 C913.165599,237.881445 919.304396,248.499244 929.264181,254.244093 L997.852865,293.801689 C1007.81265,299.54896 1020.08782,299.54896 1030.0476,293.801689 L1098.63629,254.244093 C1108.5985,248.499244 1114.73487,237.881445 1114.73487,226.391748 L1068.63466,247.134286" id="Fill-9" fill="#D0BDF4"></path>
                    <g id="trustworthy" transform="translate(953.216834, 118.888889)" fill-rule="nonzero">
                        <g id="Group" transform="translate(2.172091, 2.169312)" fill="#FFFFFF">
                            <path d="M52.1301791,104.126984 C59.9062641,104.126984 66.4659783,99.0291005 68.7032318,92.0005291 C70.310579,92.8248677 72.0048098,93.410582 73.7642034,93.6925926 L73.7642034,93.7142857 L82.5394502,121.481481 L67.3348146,119.312169 L56.4743607,130.15873 L52.1301791,116.058201 L48.3290202,103.714815 L48.3290202,103.693122 C49.545391,103.975132 50.8269246,104.126984 52.1301791,104.126984 L52.1301791,104.126984 Z" id="Path"></path>
                            <path d="M36.9255435,119.312169 L21.7209079,121.481481 L30.4961548,93.7142857 L30.4961548,93.6925926 C32.2555483,93.410582 33.9497791,92.8248677 35.5571263,92.0005291 C37.4251244,97.857672 42.2688869,102.369841 48.3290202,103.693122 L48.3290202,103.714815 L52.1301791,116.058201 L47.7859975,130.15873 L36.9255435,119.312169 Z" id="Path"></path>
                            <path d="M83.4082865,67.2486772 C80.0849876,61.9338624 78.1952686,55.6862434 78.1952686,49.0915344 L78.1952686,34.7089947 L82.2353575,34.7089947 L83.2779611,34.7089947 C86.6881436,34.7089947 90.0331634,34.1232804 93.1826951,33.0169312 C95.2027395,26.9645503 93.8126014,20.0444444 88.9905598,15.2502646 C83.4951701,9.76190476 75.2412251,8.72063492 68.7032318,12.126455 C66.4659783,5.0978836 59.9062641,7.70694502e-15 52.1301791,7.70694502e-15 C44.354094,7.70694502e-15 37.7943798,5.0978836 35.5571263,12.126455 C29.019133,8.72063492 20.765188,9.76190476 15.2697983,15.2502646 C9.77440857,20.7386243 8.73180499,28.9820106 12.1419875,35.5116402 C5.10441337,37.7460317 -3.85840834e-15,44.2973545 -3.85840834e-15,52.0634921 C-3.85840834e-15,59.8296296 5.10441337,66.3809524 12.1419875,68.6153439 C8.73180499,75.1449735 9.77440857,83.3883598 15.2697983,88.8767196 C19.4184917,93.0201058 25.1310905,94.6253968 30.4961548,93.6925926 C32.2555483,93.410582 33.9497791,92.8248677 35.5571263,92.0005291 C37.4251244,97.857672 42.2688869,102.369841 48.3290202,103.693122 C49.545391,103.975132 50.8269246,104.126984 52.1301791,104.126984 C59.9062641,104.126984 66.4659783,99.0291005 68.7032318,92.0005291 C70.310579,92.8248677 72.0048098,93.410582 73.7642034,93.6925926 C79.1292676,94.6253968 84.8418664,93.0201058 88.9905598,88.8767196 C92.031487,85.8396825 93.7039969,81.9783069 94.0298105,78.0301587 C89.7073498,75.2534392 86.0799582,71.5656085 83.4082865,67.2486772 Z" id="Path"></path>
                            <path d="M47.416742,57.5084656 L45.6139067,62.9100529 L39.7275406,63.7560847 C39.6840988,63.7560847 39.6623779,63.7560847 39.6189361,63.7777778 C34.3190345,64.5804233 30.4092711,69.1359788 30.4092711,74.4941799 L30.4092711,79.1582011 C22.4594188,72.8021164 17.3767264,63.0402116 17.3767264,52.0634921 C17.3767264,32.8867725 32.9288964,17.3544974 52.1301791,17.3544974 C64.9889566,17.3544974 76.218666,24.3396825 82.2353575,34.7089947 L78.1952686,34.7089947 L78.1952686,49.0915344 C78.1952686,55.6862434 80.0849876,61.9338624 83.4082865,67.2486772 L83.3865656,67.2486772 C81.1275912,71.8910053 77.8477341,75.9693122 73.851087,79.1365079 L73.851087,74.4941799 C73.851087,69.1359788 69.9413236,64.5804233 64.641422,63.7777778 C64.5979802,63.7560847 64.5762593,63.7560847 64.5328175,63.7560847 L58.6464514,62.9100529 L56.8436161,57.5084656 C59.8628223,56.0333333 62.1000758,53.2566138 62.773424,49.8941799 L64.9455147,46.7920635 C66.5094201,44.5793651 67.3348146,41.9328042 67.3348146,39.221164 C67.3348146,35.5767196 65.8577929,32.2793651 63.468493,29.8931217 C61.0791931,27.5068783 57.7776151,26.031746 54.1285026,26.031746 L50.1318555,26.031746 C42.8336305,26.031746 36.9255435,31.9322751 36.9255435,39.221164 C36.9255435,41.9328042 37.750938,44.5793651 39.3148434,46.7920635 L41.4869342,49.8941799 C41.9213523,52.0201058 42.9639559,53.9291005 44.4409776,55.4042328 L47.416742,57.5084656 Z" id="Path"></path>
                            <path d="M64.9455147,46.7920635 L62.773424,49.8941799 C62.9254703,49.2 62.990633,48.4624339 62.990633,47.7248677 L62.990633,44.8830688 C62.990633,42.778836 61.4484486,40.9566138 59.3632414,40.6095238 L55.1276644,39.9153439 C53.324829,39.6116402 51.7174818,38.7656085 50.4793901,37.5291005 L50.4576692,37.5507937 L45.3749767,39.5899471 C42.8987932,40.5661376 41.2697251,42.952381 41.2697251,45.6206349 L41.2697251,47.7248677 C41.2697251,48.4624339 41.3348878,49.2 41.4869342,49.8941799 L39.3148434,46.7920635 C37.750938,44.5793651 36.9255435,41.9328042 36.9255435,39.221164 C36.9255435,31.9322751 42.8336305,26.031746 50.1318555,26.031746 L54.1285026,26.031746 C57.7776151,26.031746 61.0791931,27.5068783 63.468493,29.8931217 C65.8577929,32.2793651 67.3348146,35.5767196 67.3348146,39.221164 C67.3348146,41.9328042 66.5094201,44.5793651 64.9455147,46.7920635 L64.9455147,46.7920635 Z" id="Path"></path>
                            <path d="M73.851087,74.4941799 L73.851087,79.1365079 C67.8995582,83.9306878 60.3624032,86.7724868 52.1301791,86.7724868 C43.9196759,86.7724868 36.3607999,83.9306878 30.4092711,79.1582011 L30.4092711,74.4941799 C30.4092711,69.1359788 34.3190345,64.5804233 39.6189361,63.7777778 L45.6139067,73.7566138 L52.1301791,67.2486772 L58.6464514,73.7566138 L64.641422,63.7777778 C69.9413236,64.5804233 73.851087,69.1359788 73.851087,74.4941799 Z" id="Path"></path>
                            <path d="M45.6139067,62.9100529 L52.1301791,67.2486772 L45.6139067,73.7566138 L39.6189361,63.7777778 C39.6623779,63.7560847 39.6840988,63.7560847 39.7275406,63.7560847 L45.6139067,62.9100529 Z" id="Path"></path>
                            <path d="M64.641422,63.7777778 L58.6464514,73.7566138 L52.1301791,67.2486772 L58.6464514,62.9100529 L64.5328175,63.7560847 C64.5762593,63.7560847 64.5979802,63.7560847 64.641422,63.7777778 L64.641422,63.7777778 Z" id="Path"></path>
                            <path d="M52.1301791,58.5714286 C53.8244099,58.5714286 55.4317571,58.1809524 56.8436161,57.5084656 L58.6464514,62.9100529 L52.1301791,67.2486772 L45.6139067,62.9100529 L47.416742,57.5084656 L52.1301791,58.5714286 Z" id="Path"></path>
                            <path d="M62.773424,49.8941799 C62.1000758,53.2566138 59.8628223,56.0333333 56.8436161,57.5084656 C55.4317571,58.1809524 53.8244099,58.5714286 52.1301791,58.5714286 L47.416742,57.5084656 L44.4409776,55.4042328 C42.9639559,53.9291005 41.9213523,52.0201058 41.4869342,49.8941799 C41.3348878,49.2 41.2697251,48.4624339 41.2697251,47.7248677 L41.2697251,45.6206349 C41.2697251,42.952381 42.8987932,40.5661376 45.3749767,39.5899471 L50.4576692,37.5507937 L50.4793901,37.5291005 C51.7174818,38.7656085 53.324829,39.6116402 55.1276644,39.9153439 L59.3632414,40.6095238 C61.4484486,40.9566138 62.990633,42.778836 62.990633,44.8830688 L62.990633,47.7248677 C62.990633,48.4624339 62.9254703,49.2 62.773424,49.8941799 L62.773424,49.8941799 Z" id="Path"></path>
                            <path d="M130.325448,34.7089947 L130.325448,49.0915344 C130.325448,56.9661376 127.632055,64.3634921 123.027223,70.242328 C118.42239,76.1428571 111.906118,80.5248677 104.260358,82.4338624 C100.546083,81.5010582 97.1141794,80.0042328 94.0298105,78.0301587 C89.7073498,75.2534392 86.0799582,71.5656085 83.4082865,67.2486772 C80.0849876,61.9338624 78.1952686,55.6862434 78.1952686,49.0915344 L78.1952686,34.7089947 L82.2353575,34.7089947 L83.2779611,34.7089947 C86.6881436,34.7089947 90.0331634,34.1232804 93.1826951,33.0169312 C97.3096676,31.5417989 101.110826,29.1772487 104.260358,26.031746 C109.820911,31.5851852 117.358066,34.7089947 125.242755,34.7089947 L130.325448,34.7089947 Z" id="Path"></path>
                        </g>
                        <g id="Group" fill="#3490CF">
                            <path d="M127.40833,34.7089947 C120.064491,34.7089947 113.161586,31.8541799 107.968117,26.6673545 L106.432449,25.1336508 L104.896781,26.6673545 C102.92235,28.6392593 100.698129,30.2684127 98.300141,31.5374603 C98.8605404,25.8061376 96.9034866,20.0813228 92.7004909,15.8837037 C87.2203058,10.4105291 79.1835699,8.73148148 72.0743167,11.382381 C68.9247851,4.48613757 62.0544619,-1.92673625e-15 54.3022699,-1.92673625e-15 C46.5500778,-1.92673625e-15 39.6797546,4.48613757 36.530223,11.382381 C29.4231419,8.72931217 21.3885781,10.4083598 15.9040488,15.8837037 C10.4238637,21.3568783 8.74266545,29.3833333 11.3969604,36.4834921 C4.49188376,39.6289947 -3.66548792e-14,46.4905291 -3.66548792e-14,54.2328042 C-3.66548792e-14,61.9750794 4.49188376,68.8366138 11.3969604,71.9821164 C8.74266545,79.0822751 10.4238637,87.1087302 15.9040488,92.5819048 C19.6574217,96.3304762 24.6097887,98.2524868 29.640351,98.2698413 L20.7825647,126.286508 L38.3308862,123.783122 L50.9746268,136.410688 L54.3022699,125.603175 L57.632085,136.410688 L70.2758256,123.783122 L87.8241471,126.286508 L78.9641887,98.267672 C83.994751,98.2503175 88.947118,96.3304762 92.7004909,92.5819048 C95.1918791,90.0937037 96.9447563,86.9872487 97.8092485,83.6161376 C100.337562,84.9350794 103.039643,85.9915344 105.906803,86.7052381 L106.432449,86.8375661 L106.960267,86.7052381 C123.274841,82.6356085 134.669629,68.06 134.669629,51.2630159 L134.669629,34.7089947 L127.40833,34.7089947 Z M48.9437219,128.245397 L41.5825062,120.895767 L45.50313,109.151111 L41.3826738,107.777937 L37.4620499,119.522593 L27.0034328,121.015079 L34.3711647,97.7166667 C35.0966431,97.5366138 35.8199493,97.3478836 36.530223,97.0832275 C38.9043182,102.280899 43.3940299,106.103228 48.778643,107.67381 L52.0302629,118.227513 L48.9437219,128.245397 Z M81.601107,121.015079 L71.1424898,119.522593 L67.2218659,107.777937 L63.1014097,109.151111 L67.0220335,120.895767 L59.6608178,128.245397 L53.5485544,108.411376 C53.802689,108.420053 54.0481352,108.465608 54.3022699,108.465608 C62.0544619,108.465608 68.9247851,103.979471 72.0743167,97.0832275 C72.7845904,97.3478836 73.5078967,97.5366138 74.233375,97.7166667 L81.601107,121.015079 Z M89.6291545,89.5144974 C84.9178896,94.2175661 77.7825713,95.3239153 71.8723123,92.2543386 L69.5785844,91.0655556 L68.7988038,93.5255556 C66.7917919,99.866455 60.9640723,104.126984 54.3022699,104.126984 C47.6404674,104.126984 41.8127478,99.866455 39.8057359,93.5233862 L39.0259553,91.0633862 L36.7322274,92.2521693 C30.8219684,95.3239153 23.6866501,94.2153968 18.9753852,89.512328 C14.2641202,84.8070899 13.1628702,77.6787302 16.2320345,71.7760317 L17.4245124,69.4852381 L14.9591893,68.706455 C8.61016791,66.7063492 4.34418159,60.888254 4.34418159,54.2328042 C4.34418159,47.5795238 8.61016791,41.7592593 14.9591893,39.7548148 L17.4245124,38.9760317 L16.2320345,36.6852381 C13.1628702,30.7825397 14.2662923,23.6563492 18.9753852,18.9511111 C23.6866501,14.2480423 30.8263126,13.1503704 36.7322274,16.2112698 L39.0259553,17.4022222 L39.8057359,14.9400529 C41.8127478,8.59915344 47.6404674,4.33862434 54.3022699,4.33862434 C60.9640723,4.33862434 66.7917919,8.59915344 68.7988038,14.9400529 L69.5785844,17.4022222 L71.8723123,16.2112698 C77.7825713,13.1460317 84.9178896,14.245873 89.6291545,18.9511111 C93.4780994,22.7973016 94.9160235,28.2878307 93.5584668,33.4985185 C91.0149485,34.2773016 88.3411047,34.6873016 85.6064424,34.7003175 C78.8794772,23.9774074 67.0133452,17.3544974 54.3022699,17.3544974 C33.9410908,17.3544974 17.3767264,33.897672 17.3767264,54.2328042 C17.3767264,74.5679365 33.9410908,91.1111111 54.3022699,91.1111111 C67.3304704,91.1111111 79.0749654,84.4469841 85.7628329,73.5201587 C88.0261515,76.4639153 90.7477813,79.0453968 93.827806,81.1930159 C93.3195368,84.3255026 91.8924731,87.2519048 89.6291545,89.5144974 L89.6291545,89.5144974 Z M83.0737845,69.4743915 C81.7183999,72.027672 80.071955,74.3531746 78.1713756,76.4053439 C78.0453943,70.0796296 73.2993759,64.6693651 67.0046568,63.7712698 L62.4541266,63.1226455 L61.6287321,60.6496296 C64.2461015,58.866455 66.1684019,56.1504762 66.9460104,52.9919577 L68.89872,50.2087302 C70.71676,47.6120635 71.6789962,44.5663492 71.6789962,41.3969841 C71.6789962,32.9236508 64.7782638,26.031746 56.2940771,26.031746 L52.3082905,26.031746 C43.826276,26.031746 36.9255435,32.9236508 36.9255435,41.3969841 C36.9255435,44.5663492 37.8877797,47.6120635 39.7079918,50.2087302 L41.6585293,52.9919577 C42.4361378,56.1526455 44.3584382,58.866455 46.9758076,60.6496296 L46.1504131,63.1226455 L41.5998829,63.7712698 C35.335573,64.6650265 30.6112756,70.0297354 30.4418525,76.3164021 C25.048551,70.5069841 21.7209079,62.7603704 21.7209079,54.2328042 C21.7209079,36.2904233 36.3369069,21.6931217 54.3022699,21.6931217 C64.5827756,21.6931217 74.2420633,26.6022751 80.3543268,34.7089947 L78.1952686,34.7089947 L78.1952686,51.2630159 C78.1952686,57.844709 79.9655226,64.0728042 83.0737845,69.4743915 L83.0737845,69.4743915 Z M48.4159038,36.9477249 C48.6265966,37.5789947 48.8915917,38.1798942 49.2043728,38.748254 L46.7325334,39.7374603 C44.3866754,40.6746032 42.6468307,42.5402116 41.817092,44.8071429 C41.4608691,43.7138095 41.2697251,42.5684127 41.2697251,41.3969841 C41.2697251,35.3164021 46.2220921,30.3703704 52.3104626,30.3703704 L56.2962492,30.3703704 C62.3824476,30.3703704 67.3348146,35.3164021 67.3348146,41.3969841 C67.3348146,42.501164 67.1653915,43.5836508 66.8482663,44.6184127 C66.0206997,42.5727513 64.1917992,41.0260317 61.889383,40.6442328 L57.6472897,39.937037 C55.2601619,39.5400529 53.3031081,37.8675132 52.53636,35.5767196 L52.0194024,34.0256614 L47.8989462,35.3966667 L48.4159038,36.9477249 Z M45.6139067,47.7921164 C45.6139067,46.0067725 46.6869195,44.4253439 48.3442248,43.7637037 L52.2214069,42.2148148 C53.5833078,43.2278836 55.1884829,43.9264021 56.9304997,44.2149206 L61.172593,44.9221164 C62.2260571,45.0978307 62.990633,45.9980952 62.990633,47.0610582 L62.990633,49.8898413 C62.990633,54.6753439 59.0939021,58.5692593 54.3022699,58.5714286 C49.5106376,58.5692593 45.6139067,54.6753439 45.6139067,49.8898413 L45.6139067,47.7921164 Z M61.3333278,67.344127 L63.2751769,67.6217989 L60.3884683,72.4289947 L57.7124524,69.7564021 L61.3333278,67.344127 Z M54.3022699,66.8104762 L50.3707855,64.1921164 L50.9507338,62.4544974 C52.0215745,62.7430159 53.1402013,62.9100529 54.2979257,62.9100529 L54.306614,62.9100529 C55.4643384,62.9100529 56.5829652,62.7430159 57.653806,62.4566667 L58.2337542,64.1942857 L54.3022699,66.8104762 Z M50.8920873,69.7564021 L48.2160715,72.4289947 L45.3293628,67.6217989 L47.271212,67.344127 L50.8920873,69.7564021 Z M47.3537514,79.4250265 L54.3022699,72.4853968 L61.2507883,79.4250265 L67.8626327,68.4157672 C71.361871,69.567672 73.851087,72.8780423 73.851087,76.6569841 L73.851087,80.2970899 C68.3361485,84.4317989 61.5461927,86.7724868 54.3022699,86.7724868 C46.9627751,86.7724868 40.2054006,84.3081481 34.7534527,80.2038095 L34.7534527,76.6569841 C34.7534527,72.8780423 37.2426688,69.567672 40.741907,68.4157672 L47.3537514,79.4250265 Z M130.325448,51.2630159 C130.325448,65.8841799 120.527146,78.5963492 106.432449,82.3622751 C92.3377518,78.5963492 82.5394502,65.8841799 82.5394502,51.2630159 L82.5394502,39.047619 L85.4565681,39.047619 C93.2543741,39.047619 100.624278,36.2665608 106.432449,31.1730159 C112.238448,36.2665608 119.608352,39.047619 127.40833,39.047619 L130.325448,39.047619 L130.325448,51.2630159 Z" id="Shape"></path>
                            <polygon id="Path" points="102.933708 64.1812698 96.0410333 57.0377249 93.0813485 60.1051323 102.933708 70.3160847 125.344843 47.0892593 122.385159 44.0218519"></polygon>
                        </g>
                    </g>
                    <path d="M302.584824,225.280636 L302.584824,146.163022 C302.584824,134.673325 296.448452,124.057948 286.486243,118.310677 L217.897558,78.7530812 C207.935348,73.0082322 195.662605,73.0082322 185.70282,78.7530812 L117.114135,118.310677 C107.151925,124.057948 101.015554,134.673325 101.015554,146.163022 L101.015554,225.280636 C101.015554,236.770334 107.151925,247.388133 117.114135,253.132982 L185.70282,292.690578 C195.662605,298.437849 207.935348,298.437849 217.897558,292.690578 L286.486243,253.132982 C296.448452,247.388133 302.584824,236.770334 302.584824,225.280636" id="Fill-11" fill="#D0BDF4"></path>
                    <g id="process" transform="translate(133.279048, 117.777778)" fill-rule="nonzero">
                        <g id="Group" transform="translate(35.158244, 13.594132)" fill="#5A5A60">
                            <path d="M63.6271431,25.7382233 L59.5265754,23.7897311 L61.4857355,19.7114914 L65.5863033,21.6599837 L63.6271431,25.7382233 Z M55.4032267,21.8412388 L51.257097,19.8927465 L53.2162572,15.8145069 L57.316825,17.7629992 L55.4032267,21.8412388 Z M47.1793102,17.9442543 L43.0559615,15.995762 L45.0151217,11.9175224 L49.1384704,13.8660147 L47.1793102,17.9442543 Z M38.9553937,14.0472698 L34.8320451,12.0987775 L36.7912052,8.0205379 L40.9145539,9.96903015 L38.9553937,14.0472698 Z M30.7542582,10.1502852 L26.6309095,8.20179299 L28.476165,4.12355338 L32.5995137,6.07204564 L30.7542582,10.1502852 Z M22.5303418,6.25330073 L18.3842121,4.30480848 L20.3433723,0.226568867 L24.466721,2.26568867 L22.5303418,6.25330073 Z" id="Shape"></path>
                            <path d="M20.457277,108.481174 L18.1791837,104.493562 L22.1658469,102.227873 L24.4439401,106.192828 L20.457277,108.481174 Z M28.476165,104.221679 L26.1980718,100.143439 L30.2075159,97.8777506 L32.4856091,101.842706 L28.476165,104.221679 Z M36.4267103,99.6903015 L34.1486171,95.7253464 L38.1352802,93.4596577 L40.4133734,97.4472698 L36.4267103,99.6903015 Z M44.4228174,95.3628362 L42.1447242,91.397881 L46.1541683,89.1321923 L48.4322615,93.0971475 L44.4228174,95.3628362 Z M52.3961436,91.0127139 L50.1180504,87.0251019 L54.1047135,84.7594132 L56.3828067,88.7243684 L52.3961436,91.0127139 Z M60.3694698,86.6399348 L58.0913766,82.6749796 L62.0780397,80.409291 L64.3561329,84.3742461 L60.3694698,86.6399348 Z" id="Shape"></path>
                            <polygon id="Path" points="33.0594038 60.6768419 35.0179944 56.5855746 39.1316612 58.5335004 37.1730706 62.6247677"></polygon>
                            <polygon id="Path" points="0.155479861 45.0872046 2.11407049 40.9959372 6.22773729 42.9438631 4.26914666 47.0351304"></polygon>
                            <polygon id="Path" points="8.39021726 48.9839059 10.3488079 44.8926385 14.4624747 46.8405644 12.5038841 50.9318317"></polygon>
                            <polygon id="Path" points="41.2944259 64.5738264 43.2530166 60.4825591 47.3666834 62.4304849 45.4080927 66.5217522"></polygon>
                            <polygon id="Path" points="41.6005447 43.2477486 45.5923335 41.0633415 47.7887001 45.0333945 43.7969113 47.2178015"></polygon>
                            <polygon id="Path" points="1.68180231 65.0702954 5.67359112 62.8858883 7.86995773 66.8559413 3.87816891 69.0403484"></polygon>
                            <polygon id="Path" points="20.8445528 54.603097 22.6898083 50.7514262 18.5664596 48.802934 16.6072994 52.8811736 20.5711816 54.7616952 17.6552223 56.3476773 19.8421918 60.3126324 23.8516358 58.1375713 21.6418854 54.1726161"></polygon>
                            <polygon id="Path" points="33.6360461 47.6165628 37.6278349 45.4321557 39.8242015 49.4022086 35.8324127 51.5866157"></polygon>
                            <polygon id="Path" points="9.65341994 60.7303688 13.646063 58.5473778 15.8410058 62.5182804 11.8483627 64.7012714"></polygon>
                            <polygon id="Path" points="29.6379926 49.799837 25.6513295 51.9748981 26.4486621 53.4249389 24.8312159 56.7781581 28.9545646 58.7266504 30.9137247 54.6484108 30.5492298 54.4671557 31.824962 53.7647922"></polygon>
                        </g>
                        <path d="M54.2344274,23.9709861 L54.0302827,22.2943765 L46.63571,20.9349633 C46.3025573,19.8876487 45.8775395,18.8717706 45.3654767,17.8989405 L49.6298315,11.7136104 L48.6091083,10.399511 C47.2801833,8.71667074 45.757321,7.19554401 44.0725606,5.86813366 L42.7569618,4.84857376 L36.5192087,9.06275469 C35.5452687,8.55127547 34.5282314,8.12674205 33.4797218,7.79396903 L32.1187575,0.407823961 L30.4402349,0.20391198 C28.3015362,-0.0679706601 26.1370359,-0.0679706601 23.9983372,0.20391198 L22.3198145,0.407823961 L20.9588502,7.79396903 C19.9103406,8.12674205 18.8933034,8.55127547 17.9193633,9.06275469 L11.7269757,4.80325998 L10.4113769,5.82281989 C8.72661651,7.15023024 7.20375416,8.67135697 5.87482923,10.3541972 L4.85410601,11.6682967 L9.07309534,17.8989405 C8.56103252,18.8717706 8.13601471,19.8876487 7.80286199,20.9349633 L0.40828929,22.2943765 L0.204144645,23.9709861 C-0.068048215,26.1072474 -0.068048215,28.2692808 0.204144645,30.405542 L0.40828929,32.0821516 L7.80286199,33.4415648 C8.13601471,34.4888794 8.56103252,35.5047575 9.07309534,36.4775876 L4.80874053,42.6629177 L5.82946375,43.9770171 C7.15838869,45.6598574 8.68125103,47.1809841 10.3660114,48.5083945 L11.6816102,49.5279544 L17.9193633,45.3137734 C18.8933034,45.8252526 19.9103406,46.2497861 20.9588502,46.5825591 L22.3198145,53.9687042 L23.9983372,54.1726161 C26.1370359,54.4444988 28.3015362,54.4444988 30.4402349,54.1726161 L32.1187575,53.9687042 L33.4797218,46.5825591 C34.5282314,46.2497861 35.5452687,45.8252526 36.5192087,45.3137734 L42.7115963,49.5732681 L44.0271951,48.5537082 C45.7119555,47.2262979 47.2348179,45.7051711 48.5637428,44.0223309 L49.584466,42.7082315 L45.3654767,36.4775876 C45.8775395,35.5047575 46.3025573,34.4888794 46.63571,33.4415648 L54.0302827,32.0821516 L54.2344274,30.405542 C54.5066202,28.2692808 54.5066202,26.1072474 54.2344274,23.9709861 L54.2344274,23.9709861 Z M34.0241075,27.1882641 C34.0241075,30.942227 30.9775322,33.9853301 27.219286,33.9853301 C23.4610398,33.9853301 20.4144645,30.942227 20.4144645,27.1882641 C20.4144645,23.4343011 23.4610398,20.391198 27.219286,20.391198 C30.9775322,20.391198 34.0241075,23.4343011 34.0241075,27.1882641 Z" id="Shape" fill="#FFFFFF"></path>
                        <path d="M135.892285,64.7533822 L135.688141,63.0767726 L128.293568,61.7173594 C127.960415,60.6700448 127.535398,59.6541667 127.023335,58.6813366 L131.28769,52.4960065 L130.266966,51.1819071 C128.938041,49.4990668 127.415179,47.9779401 125.730419,46.6505297 L124.41482,45.6309698 L118.177067,49.8451508 C117.203127,49.3336716 116.186089,48.9091381 115.13758,48.5763651 L113.776616,41.19022 L112.098093,40.9863081 C109.959394,40.7144254 107.794894,40.7144254 105.656195,40.9863081 L103.977673,41.19022 L102.616708,48.5763651 C101.568199,48.9091381 100.551161,49.3336716 99.5772213,49.8451508 L93.3848338,45.5856561 L92.0692349,46.605216 C90.3844745,47.9326263 88.8616122,49.4537531 87.5326873,51.1365933 L86.511964,52.4506927 L90.7309534,58.6813366 C90.2188906,59.6541667 89.7938727,60.6700448 89.46072,61.7173594 L82.0661473,63.0767726 L81.8620027,64.7533822 C81.5898098,66.8896434 81.5898098,69.0516769 81.8620027,71.1879381 L82.0661473,72.8645477 L89.46072,74.2239609 C89.7938727,75.2712755 90.2188906,76.2871536 90.7309534,77.2599837 L86.4665986,83.4453138 L87.4873218,84.7594132 C88.8162467,86.4422535 90.3391091,87.9633802 92.0238695,89.2907905 L93.3394683,90.3103504 L99.5772213,86.0961695 C100.551161,86.6076487 101.568199,87.0321822 102.616708,87.3649552 L103.977673,94.7511002 L105.656195,94.9550122 C107.794894,95.2268949 109.959394,95.2268949 112.098093,94.9550122 L113.776616,94.7511002 L115.13758,87.3649552 C116.186089,87.0321822 117.203127,86.6076487 118.177067,86.0961695 L124.369454,90.3556642 L125.685053,89.3361043 C127.369814,88.008694 128.892676,86.4875672 130.221601,84.804727 L131.242324,83.4906275 L127.023335,77.2599837 C127.535398,76.2871536 127.960415,75.2712755 128.293568,74.2239609 L135.688141,72.8645477 L135.892285,71.1879381 C136.164478,69.0516769 136.164478,66.8896434 135.892285,64.7533822 L135.892285,64.7533822 Z M115.681966,67.9706601 C115.681966,71.7246231 112.63539,74.7677262 108.877144,74.7677262 C105.118898,74.7677262 102.072323,71.7246231 102.072323,67.9706601 C102.072323,64.2166972 105.118898,61.1735941 108.877144,61.1735941 C112.63539,61.1735941 115.681966,64.2166972 115.681966,67.9706601 Z" id="Shape" fill="#FFFFFF"></path>
                        <path d="M54.2344274,105.535778 L54.0302827,103.859169 L46.63571,102.499756 C46.3025573,101.452441 45.8775395,100.436563 45.3654767,99.4637327 L49.6298315,93.2784026 L48.6091083,91.9643032 C47.2801833,90.2814629 45.757321,88.7603362 44.0725606,87.4329258 L42.7569618,86.4133659 L36.5192087,90.6275469 C35.5452687,90.1160676 34.5282314,89.6915342 33.4797218,89.3587612 L32.1187575,81.9726161 L30.4402349,81.7687042 C28.3015362,81.4968215 26.1370359,81.4968215 23.9983372,81.7687042 L22.3198145,81.9726161 L20.9588502,89.3587612 C19.9103406,89.6915342 18.8933034,90.1160676 17.9193633,90.6275469 L11.7269757,86.3680522 L10.4113769,87.3876121 C8.72661651,88.7150224 7.20375416,90.2361491 5.87482923,91.9189894 L4.85410601,93.2330888 L9.07309534,99.4637327 C8.56103252,100.436563 8.13601471,101.452441 7.80286199,102.499756 L0.40828929,103.859169 L0.204144645,105.535778 C-0.068048215,107.67204 -0.068048215,109.834073 0.204144645,111.970334 L0.40828929,113.646944 L7.80286199,115.006357 C8.13601471,116.053672 8.56103252,117.06955 9.07309534,118.04238 L4.80874053,124.22771 L5.82946375,125.541809 C7.15838869,127.22465 8.68125103,128.745776 10.3660114,130.073187 L11.6816102,131.092747 L17.9193633,126.878566 C18.8933034,127.390045 19.9103406,127.814578 20.9588502,128.147351 L22.3198145,135.533496 L23.9983372,135.737408 C26.1370359,136.009291 28.3015362,136.009291 30.4402349,135.737408 L32.1187575,135.533496 L33.4797218,128.147351 C34.5282314,127.814578 35.5452687,127.390045 36.5192087,126.878566 L42.7115963,131.13806 L44.0271951,130.1185 C45.7119555,128.79109 47.2348179,127.269963 48.5637428,125.587123 L49.584466,124.273024 L45.3654767,118.04238 C45.8775395,117.06955 46.3025573,116.053672 46.63571,115.006357 L54.0302827,113.646944 L54.2344274,111.970334 C54.5066202,109.834073 54.5066202,107.67204 54.2344274,105.535778 L54.2344274,105.535778 Z M34.0241075,108.753056 C34.0241075,112.507019 30.9775322,115.550122 27.219286,115.550122 C23.4610398,115.550122 20.4144645,112.507019 20.4144645,108.753056 C20.4144645,104.999093 23.4610398,101.95599 27.219286,101.95599 C30.9775322,101.95599 34.0241075,104.999093 34.0241075,108.753056 Z" id="Shape" fill="#FFFFFF"></path>
                    </g>
                </g>
            </g>
        </g>
    </g>
</svg>