<?xml version="1.0" encoding="UTF-8"?>
<svg width="196px" height="186px" viewBox="0 0 196 186" version="1.1" xmlns="http://www.w3.org/2000/svg" xmlns:xlink="http://www.w3.org/1999/xlink">
    <title>299EF78C-1533-4826-A13B-56226368D1EA</title>
    <g id="Page-1" stroke="none" stroke-width="1" fill="none" fill-rule="evenodd">
        <g id="Landing-Page" transform="translate(-677.000000, -1165.000000)" fill="#B57AD2" fill-rule="nonzero">
            <g id="Secret-Sauce" transform="translate(82.000000, 953.000000)">
                <g id="3-Features" transform="translate(0.000000, 169.000000)">
                    <g id="Feature-2" transform="translate(473.000000, 0.000000)">
                        <g id="reputation" transform="translate(122.324500, 43.200000)">
                            <path d="M102.689028,122.52637 L91.5161199,122.52637 C58.6585287,122.52637 31.926389,147.96308 31.926389,179.230012 C31.926389,182.165878 34.4275487,184.5459 37.5128433,184.5459 L156.692305,184.5459 C159.7776,184.5459 162.278759,182.165517 162.278759,179.229652 C162.278759,147.963441 135.547378,122.52637 102.689028,122.52637 Z" id="Path"></path>
                            <path d="M97.1025741,122.52637 L91.5161199,122.52637 C58.6585287,122.52637 31.926389,147.96308 31.926389,179.230012 C31.926389,182.165878 34.4275487,184.5459 37.5128433,184.5459 L97.1025741,184.5459 L97.1025741,122.52637 Z" id="Path"></path>
                            <path d="M97.1025741,64.0483594 C77.5932253,64.0483594 61.7210648,79.1517891 61.7210648,97.7162484 L61.7210648,99.4909781 C61.7210648,118.055437 77.5932253,133.158867 97.1025741,133.158867 C116.611923,133.158867 132.484084,118.055437 132.484084,99.4909781 L132.484084,97.7162484 C132.484084,79.1517891 116.611923,64.0483594 97.1025741,64.0483594 Z" id="Path"></path>
                            <path d="M61.7214441,97.7158875 L61.7214441,99.4906172 C61.7214441,118.055077 77.5936046,133.158506 97.1029535,133.158506 L97.1029535,64.0483594 C77.5932253,64.0483594 61.7214441,79.1517891 61.7214441,97.7158875 Z" id="Path"></path>
                            <path d="M123.260062,17.4228141 L109.827992,13.3951125 L101.651241,2.48361094 C100.603211,1.08497813 98.9084615,0.2541 97.1025741,0.2541 C95.2966868,0.2541 93.6023161,1.08497813 92.5539077,2.48361094 L84.3775355,13.3951125 L70.9458454,17.4228141 C69.2234059,17.9396766 67.8700335,19.2163125 67.3116915,20.8506375 C66.7537288,22.4842406 67.06021,24.2748516 68.1344114,25.6557984 L76.5133342,36.4272562 L76.3881625,49.8281437 C76.3722315,51.5462062 77.2298478,53.1657328 78.6909438,54.1763578 C79.657801,54.8448141 80.8097606,55.1916666 81.9749961,55.1916666 C82.5705103,55.1916666 83.1690589,55.1007187 83.7482629,54.9162797 L97.1029535,50.6619094 L110.457644,54.9159187 C112.170222,55.4627391 114.053867,55.1862609 115.514584,54.1756359 C116.97568,53.1657328 117.833675,51.5458453 117.817365,49.8274219 L117.692193,36.4265344 L126.071116,25.6554375 C127.145697,24.2744906 127.451799,22.4842406 126.893836,20.8499156 C126.336253,19.2155906 124.982501,17.9389547 123.260062,17.4228141 Z" id="Path"></path>
                            <path d="M92.5539077,2.48361094 L84.3775355,13.3951125 L70.9458454,17.4228141 C69.2234059,17.9396766 67.8700335,19.2163125 67.3116915,20.8506375 C66.7537288,22.4842406 67.06021,24.2748516 68.1344114,25.6557984 L76.5133342,36.4272562 L76.3881625,49.8281437 C76.3722315,51.5462062 77.2298478,53.1657328 78.6909438,54.1763578 C79.657801,54.8448141 80.8097606,55.1913141 81.9749961,55.1913141 C82.5705103,55.1913141 83.1690589,55.1007187 83.7482629,54.9162797 L97.1029535,50.6619094 L97.1029535,0.2541 C95.2970661,0.2541 93.6023161,1.08425625 92.5539077,2.48361094 Z" id="Path"></path>
                            <path d="M193.932046,36.8004656 C193.374084,35.1665016 192.020332,33.8895047 190.297892,33.3730031 L176.866202,29.3456625 L168.68983,18.4341609 C167.641801,17.0355281 165.947051,16.20465 164.141164,16.20465 C162.335276,16.20465 160.640906,17.0355281 159.592497,18.4341609 L151.416125,29.3456625 L137.984435,33.3730031 C136.261995,33.8895047 134.908244,35.1661406 134.350281,36.8004656 C133.791939,38.4344297 134.09842,40.2250406 135.173001,41.6059875 L143.551924,52.3774453 L143.426752,65.7783328 C143.410442,67.4967562 144.268437,69.1162828 145.729154,70.1265469 C147.190629,71.1371719 149.073896,71.4114844 150.786473,70.8671906 L164.141164,66.6131812 L177.495854,70.8671906 C178.075058,71.0519906 178.673607,71.1418641 179.269121,71.1418641 C180.433977,71.1418641 181.586316,70.7950031 182.553173,70.1265469 C184.01389,69.1166437 184.871886,67.4967562 184.855575,65.7783328 L184.730403,52.3774453 L193.109326,41.6059875 C194.183907,40.2250406 194.490388,38.4344297 193.932046,36.8004656 Z" id="Path"></path>
                            <path d="M56.2214721,33.3730031 L42.789782,29.3456625 L34.6126512,18.4341609 C33.5642428,17.0355281 31.8698721,16.20465 30.0639847,16.20465 C28.2580974,16.20465 26.5637267,17.0355281 25.5153183,18.4341609 L17.3393254,29.3456625 L3.90725595,33.3730031 C2.18481645,33.8895047 0.831444039,35.1661406 0.273481365,36.8004656 C-0.284860617,38.4344297 0.0219998879,40.2250406 1.09620131,41.6059875 L9.47512413,52.3774453 L9.34995235,65.7783328 C9.3340214,67.4963953 10.1916377,69.1159219 11.6527337,70.1261859 C13.1138297,71.1368109 14.9978546,71.4114844 16.7100528,70.8668297 L30.0647433,66.6128203 L43.4194339,70.8668297 C43.9986379,71.0516297 44.5971865,71.1415192 45.1927007,71.1415192 C46.3575569,71.1415192 47.5098958,70.7946422 48.476753,70.1261859 C49.9374697,69.1162828 50.7954653,67.4963953 50.7795343,65.7783328 L50.6543626,52.3774453 L59.0332854,41.6059875 C60.1074868,40.2254016 60.4143473,38.4347906 59.8560053,36.8004656 C59.297284,35.1661406 57.9435323,33.8895047 56.2214721,33.3730031 Z" id="Path"></path>
                        </g>
                    </g>
                </g>
            </g>
        </g>
    </g>
</svg>