<?xml version="1.0" encoding="UTF-8"?>
<svg width="196px" height="185px" viewBox="0 0 196 185" version="1.1" xmlns="http://www.w3.org/2000/svg" xmlns:xlink="http://www.w3.org/1999/xlink">
    <title>1562583F-C693-43EE-94DC-5154C1C24B84</title>
    <g id="Booking-Page" stroke="none" stroke-width="1" fill="none" fill-rule="evenodd">
        <g id="Landing-Page" transform="translate(-174.000000, -1171.000000)" fill-rule="nonzero">
            <g id="Secret-Sauce" transform="translate(82.000000, 950.000000)">
                <g id="3-Features" transform="translate(0.000000, 172.000000)">
                    <g id="Feature-1" transform="translate(0.000000, 49.000000)">
                        <g id="place" transform="translate(92.058644, 0.000000)">
                            <path d="M194.205907,92.491451 C194.205907,124.459517 177.179201,152.641095 151.290365,169.25558 C145.238275,173.136446 138.702651,176.38686 131.790506,178.908667 C121.018024,182.83106 109.326035,184.982902 97.1029535,184.982902 C82.8981786,184.982902 69.4028497,182.076028 57.2431819,176.858755 C50.6639614,174.031159 44.4691893,170.527809 38.7658771,166.43931 C15.2233651,149.560564 0,122.719167 0,92.491451 C0,82.9893701 1.50212324,73.8232785 4.29631027,65.197035 C16.5233556,27.4378721 53.4502216,0 97.1029535,0 C140.755685,0 177.682551,27.4378721 189.909597,65.197035 C192.703784,73.8232785 194.205907,82.9893701 194.205907,92.491451 Z" id="Path" fill="#FFFFFF"></path>
                            <ellipse id="Oval" fill="#D0BDF4" cx="145.520071" cy="101.60318" rx="25.0755496" ry="9.8392028"></ellipse>
                            <path d="M181.35661,114.980087 C180.988411,116.843506 180.116863,118.575928 178.724922,119.940649 C177.369047,121.269883 175.675493,122.246895 173.916146,123.014007 C169.963065,124.737746 165.623553,125.600748 161.353798,126.264799 C156.898952,126.957541 152.398528,127.379981 147.899688,127.711063 C143.369538,128.04441 138.834632,128.316221 134.296555,128.533293 C125.23903,128.966682 116.175955,129.266052 107.120411,129.749273 C98.1738603,130.22683 89.2074925,130.815001 80.3524958,132.170283 C76.1009718,132.821121 71.8228931,133.625608 67.7845993,135.083575 C65.9693685,135.738943 63.9206944,136.533992 62.560064,137.903243 C62.0610738,138.40534 61.8969896,138.792671 62.0749456,139.466915 C62.2897611,140.28084 62.7400018,141.04078 63.2100593,141.74296 C64.3495327,143.444425 65.8088514,144.949582 67.3145417,146.360737 C67.7417947,146.761282 68.1769745,147.152766 68.6180993,147.539342 C68.8626402,147.753772 68.9942246,147.807756 69.3045577,147.933847 C71.1360383,148.678686 73.1799564,148.961823 75.1422288,149.200791 C77.3034631,149.46392 79.4781729,149.617946 81.6532791,149.734976 C85.5013304,149.941478 89.3584975,150.00943 93.2105122,150.115135 C101.874474,150.353348 110.560234,150.648565 119.133037,151.949486 C127.363008,153.198309 135.712673,155.503423 142.526526,160.228792 C145.879551,162.553914 148.804133,165.441157 150.999849,168.799918 C151.061281,168.894297 151.121921,168.989054 151.182164,169.08381 C151.294725,169.26162 151.292347,169.18423 151.170274,169.332216 C151.045428,169.4836 150.744607,169.602895 150.57101,169.712375 C150.110069,170.002307 149.646352,170.288464 149.180655,170.570846 C148.308313,171.099369 147.427253,171.614678 146.537869,172.116775 C144.754345,173.123233 142.937133,174.074951 141.089799,174.970797 C139.191337,175.891181 137.261564,176.751918 135.303652,177.551497 C134.365518,177.934298 133.42144,178.303132 132.47102,178.657997 C132.290289,178.725572 131.881664,178.945287 131.763555,178.848265 C131.622063,178.73199 131.52496,178.348056 131.433405,178.183837 C131.200358,177.764794 130.934019,177.360474 130.637161,176.97956 C128.280532,173.954523 124.361536,172.136406 120.767141,170.806416 C116.724091,169.31032 112.499915,168.312167 108.251165,167.513343 C103.858941,166.687715 99.4302536,166.072742 94.9904688,165.534781 C90.6251956,165.005881 86.253581,164.524171 81.8918749,163.967712 C77.6177596,163.422578 73.319864,162.817043 69.1662356,161.685249 C65.7157119,160.745234 62.2897611,159.374851 59.6917617,156.950442 C59.0512785,156.352834 58.4646974,155.689916 57.8804944,155.043231 C56.4901386,153.50523 55.1738982,151.900409 54.0086627,150.199699 C51.8838916,147.098781 50.1772576,143.549752 50.1007643,139.787049 C50.0183258,135.72573 52.0325185,132.025695 55.3252995,129.501244 C58.5978672,126.992272 62.7281116,125.630949 66.7644237,124.706035 C70.9961308,123.736196 75.3372274,123.184645 79.6660374,122.792783 C88.5769178,121.986408 97.5607245,121.855033 106.50569,121.773867 C115.575106,121.691191 124.644522,121.73083 133.713541,121.590772 C142.670793,121.452601 151.688685,121.235529 160.568255,120.014642 C162.746135,119.715271 164.918467,119.347193 167.051165,118.827731 C169.038407,118.343755 171.066868,117.755585 172.830574,116.733272 C173.587185,116.294598 174.359252,115.75626 174.786505,114.997075 C175.186807,114.285457 175.379824,113.352237 175.261715,112.552658 C175.000924,110.783617 173.188864,109.575188 171.680796,108.763151 C169.89212,107.79973 167.931829,107.144739 165.959649,106.616972 C165.790412,106.57167 163.620062,105.938575 163.548325,106.089959 C163.548325,105.792854 163.685061,105.448559 163.749268,105.160515 C163.899084,104.489291 164.050882,103.818445 164.203076,103.147976 C164.352496,102.491098 164.502312,101.834598 164.655298,101.178097 C164.666396,101.129775 164.832065,100.264886 164.876059,100.264886 C164.882004,100.387956 166.62629,100.696386 166.787204,100.735271 C168.66783,101.187535 170.525469,101.757207 172.3082,102.486568 C175.57839,103.824485 178.824403,105.799649 180.498933,108.900189 C181.509597,110.768139 181.790204,112.923756 181.35661,114.980087 Z" id="Path" fill="#D0BDF4"></path>
                            <path d="M189.909597,65.197035 L4.29631027,65.197035 C16.5233556,27.4378721 53.4502216,0 97.1029535,0 C140.755685,0 177.682551,27.4378721 189.909597,65.197035 Z" id="Path" fill="#F0E3F7"></path>
                            <g id="Group" transform="translate(2.378032, 47.944548)">
                                <path d="M90.8844011,69.4893934 L54.8651504,128.914207 C48.2859299,126.086611 42.0911578,122.583261 36.3878455,118.494762 L6.68623194,69.4893934 C-4.930452,50.3228997 -0.321034254,28.185354 13.8005095,14.1493044 C22.4248372,5.57968835 34.5963951,0.0339764514 48.7853165,0.0339764514 C86.2076057,0.0339764514 109.595546,38.6198997 90.8844011,69.4893934 Z" id="Path" fill="#D0BDF4"></path>
                                <path d="M74.1097668,46.3359518 C74.1097668,57.6965446 65.8643388,67.220899 54.7636877,69.7804583 C52.846598,70.2274374 50.8423138,70.4603649 48.7825421,70.4603649 C34.8009058,70.4603649 23.4600736,59.6584959 23.4600736,46.3359518 C23.4600736,33.0179379 34.8005095,22.216069 48.7825421,22.216069 C50.8427101,22.216069 52.846598,22.449374 54.7636877,22.8959756 C65.8647352,25.4559124 74.1097668,34.9802668 74.1097668,46.3359518 Z" id="Path" fill="#F0E3F7"></path>
                                <path d="M74.1097668,46.3359518 C74.1097668,57.6965446 65.8643388,67.220899 54.7636877,69.7804583 C43.6630366,67.220899 35.4227611,57.6961671 35.4227611,46.3359518 C35.4227611,34.9802668 43.6630366,25.4559124 54.7636877,22.8963531 C65.8647352,25.4559124 74.1097668,34.9802668 74.1097668,46.3359518 Z" id="Path" fill="#FFFFFF"></path>
                            </g>
                            <g id="Group" transform="translate(109.785788, 0.000000)">
                                <path d="M35.7342832,101.60318 L66.5270169,50.8015901 C80.2125883,28.2231056 63.1058223,0.000377516126 35.7342832,0.000377516126 L35.7342832,0.000377516126 C8.36314049,0.000377516126 -8.74402187,28.2234831 4.94154948,50.8015901 L35.7342832,101.60318 Z" id="Path" fill="#D0BDF4"></path>
                                <path d="M54.2575633,33.8665942 C54.2575633,42.1761016 48.2268754,49.1424067 40.1074832,51.0145092 C38.7052372,51.3414382 37.2395772,51.5116979 35.7326979,51.5116979 C25.5059733,51.5116979 17.2113994,43.6110404 17.2113994,33.8662167 C17.2113994,24.1251681 25.5059733,16.2245106 35.7326979,16.2245106 C37.2395772,16.2245106 38.7052372,16.3951479 40.1074832,16.7216993 C48.2268754,18.5941793 54.2575633,25.5608619 54.2575633,33.8665942 Z" id="Path" fill="#F0E3F7"></path>
                                <path d="M54.2575633,33.8665942 C54.2575633,42.1761016 48.2268754,49.1424067 40.1074832,51.0145092 C31.9880909,49.1424067 25.96097,42.1757241 25.96097,33.8665942 C25.96097,25.5608619 31.9880909,18.5941793 40.1074832,16.7220768 C48.2268754,18.5941793 54.2575633,25.5608619 54.2575633,33.8665942 Z" id="Path" fill="#FFFFFF"></path>
                            </g>
                        </g>
                    </g>
                </g>
            </g>
        </g>
    </g>
</svg>