<?xml version="1.0" encoding="UTF-8"?>
<svg width="196px" height="185px" viewBox="0 0 196 185" version="1.1" xmlns="http://www.w3.org/2000/svg" xmlns:xlink="http://www.w3.org/1999/xlink">
    <title>A5189395-1E8F-47A0-A216-8A2AB7254683</title>
    <g id="Booking-Page" stroke="none" stroke-width="1" fill="none" fill-rule="evenodd">
        <g id="Landing-Page" transform="translate(-1182.000000, -1164.000000)" fill-rule="nonzero">
            <g id="Secret-Sauce" transform="translate(82.000000, 950.000000)">
                <g id="3-Features" transform="translate(0.000000, 172.000000)">
                    <g id="Feature-3" transform="translate(1008.000000, 42.000000)">
                        <g id="famous" transform="translate(92.058644, 0.000000)">
                            <rect id="Rectangle" fill="#B57AD2" x="93.8661883" y="18.4782514" width="6.47353023" height="12.3188343"></rect>
                            <polygon id="Rectangle" fill="#B57AD2" transform="translate(132.707690, 32.596463) rotate(-45.000000) translate(-132.707690, -32.596463) " points="126.31275 29.2812015 138.945576 29.5953116 139.102631 35.9117247 126.469805 35.5976146"></polygon>
                            <rect id="Rectangle" fill="#B57AD2" x="165.075021" y="178.623097" width="12.9470605" height="6.15941713"></rect>
                            <rect id="Rectangle" fill="#B57AD2" x="165.075021" y="147.826011" width="12.9470605" height="6.15941713"></rect>
                            <rect id="Rectangle" fill="#B57AD2" x="165.075021" y="117.028925" width="12.9470605" height="6.15941713"></rect>
                            <polygon id="Rectangle" fill="#B57AD2" transform="translate(168.319808, 89.305325) rotate(-18.445820) translate(-168.319808, -89.305325) " points="161.830743 86.11569 174.714593 86.3042486 174.808872 92.4949609 161.925022 92.3064023"></polygon>
                            <polygon id="Rectangle" fill="#B57AD2" transform="translate(158.263449, 57.368365) rotate(-18.445820) translate(-158.263449, -57.368365) " points="151.774385 54.1787298 164.658235 54.3672884 164.752514 60.5580007 151.868664 60.3694421"></polygon>
                            <polygon id="Rectangle" fill="#B57AD2" transform="translate(61.500564, 32.603793) rotate(-44.991897) translate(-61.500564, -32.603793) " points="58.1852803 26.2088964 64.5017379 26.3659514 64.815848 38.9986889 58.4993904 38.8416339"></polygon>
                            <rect id="Rectangle" fill="#B57AD2" x="16.1838256" y="178.623097" width="12.9470605" height="6.15941713"></rect>
                            <rect id="Rectangle" fill="#B57AD2" x="16.1838256" y="147.826011" width="12.9470605" height="6.15941713"></rect>
                            <path d="M102.759718,123.588305 L92.7072665,123.588305 C63.1447465,123.588305 39.0933968,146.225908 39.0933968,174.052165 C39.0933968,176.664962 41.3437317,178.783082 44.1196225,178.783082 L151.347362,178.783082 C154.123253,178.783082 156.373587,176.664641 156.373587,174.051844 C156.373587,146.226229 132.32292,123.588305 102.759718,123.588305 Z" id="Path" fill="#D0BDF4"></path>
                            <path d="M97.1029535,71.9931872 C79.7190164,71.9931872 65.5760205,85.6288103 65.5760205,102.389108 L65.5760205,103.991362 C65.5760205,120.75166 79.7190164,134.387283 97.1029535,134.387283 C114.486891,134.387283 128.629886,120.75166 128.629886,103.991362 L128.629886,102.389108 C128.629886,85.6288103 114.486891,71.9931872 97.1029535,71.9931872 Z" id="Path" fill="#D0BDF4"></path>
                            <rect id="Rectangle" fill="#B57AD2" x="16.1838256" y="117.028925" width="12.9470605" height="6.15941713"></rect>
                            <polygon id="Rectangle" fill="#B57AD2" transform="translate(25.893461, 89.305905) rotate(-71.572299) translate(-25.893461, -89.305905) " points="22.7039351 82.8168206 28.8945877 82.9110204 29.0829874 95.7949896 22.8923348 95.7007898"></polygon>
                            <polygon id="Rectangle" fill="#B57AD2" transform="translate(35.934353, 57.390018) rotate(-71.561428) translate(-35.934353, -57.390018) " points="32.7445591 50.9005355 38.935639 50.9947889 39.1241459 63.8795014 32.9330661 63.785248"></polygon>
                            <path d="M190.969142,12.3188343 C185.608654,12.3134448 181.264511,8.18009091 181.258846,3.07970856 C181.258846,1.37893951 179.809585,0 178.022081,0 C176.234578,0 174.785316,1.37893951 174.785316,3.07970856 C174.779652,8.18009091 170.435509,12.3134448 165.075021,12.3188343 C163.287517,12.3188343 161.838256,13.6977738 161.838256,15.3985428 C161.838256,17.0993119 163.287517,18.4782514 165.075021,18.4782514 C170.435509,18.4836409 174.779652,22.6169947 174.785316,27.7173771 C174.785316,29.4181461 176.234578,30.7970856 178.022081,30.7970856 C179.809585,30.7970856 181.258846,29.4181461 181.258846,27.7173771 C181.264511,22.6169947 185.608654,18.4836409 190.969142,18.4782514 C192.756645,18.4782514 194.205907,17.0993119 194.205907,15.3985428 C194.205907,13.6977738 192.756645,12.3188343 190.969142,12.3188343 Z M178.022081,18.4871055 C177.098389,17.3172013 176.005577,16.2774146 174.776011,15.3985428 C176.005577,14.519671 177.098389,13.4798844 178.022081,12.3099801 C178.945773,13.4798844 180.038586,14.519671 181.268152,15.3985428 C180.038586,16.2774146 178.945773,17.3172013 178.022081,18.4871055 Z" id="Shape" fill="#D0BDF4"></path>
                            <path d="M29.130886,12.3188343 C23.7703984,12.3134448 19.426255,8.18009091 19.4205907,3.07970856 C19.4205907,1.37893951 17.9713291,0 16.1838256,0 C14.396322,0 12.9470605,1.37893951 12.9470605,3.07970856 C12.9413961,8.18009091 8.59725274,12.3134448 3.23676512,12.3188343 C1.44926158,12.3188343 0,13.6977738 0,15.3985428 C0,17.0993119 1.44926158,18.4782514 3.23676512,18.4782514 C8.59725274,18.4836409 12.9413961,22.6169947 12.9470605,27.7173771 C12.9470605,29.4181461 14.396322,30.7970856 16.1838256,30.7970856 C17.9713291,30.7970856 19.4205907,29.4181461 19.4205907,27.7173771 C19.426255,22.6169947 23.7703984,18.4836409 29.130886,18.4782514 C30.9183896,18.4782514 32.3676512,17.0993119 32.3676512,15.3985428 C32.3676512,13.6977738 30.9183896,12.3188343 29.130886,12.3188343 Z M16.1838256,18.4871055 C15.2601337,17.3172013 14.1673209,16.2774146 12.9377548,15.3985428 C14.1673209,14.519671 15.2601337,13.4798844 16.1838256,12.3099801 C17.1075174,13.4798844 18.2003302,14.519671 19.4298964,15.3985428 C18.2003302,16.2774146 17.1075174,17.3172013 16.1838256,18.4871055 Z" id="Shape" fill="#D0BDF4"></path>
                        </g>
                    </g>
                </g>
            </g>
        </g>
    </g>
</svg>