<?xml version="1.0" encoding="UTF-8"?>
<svg width="74px" height="128px" viewBox="0 0 74 128" version="1.1" xmlns="http://www.w3.org/2000/svg" xmlns:xlink="http://www.w3.org/1999/xlink">
    <title>CB300D24-EB93-4792-8D0C-3E4B59B77660</title>
    <g id="Booking-Page" stroke="none" stroke-width="1" fill="none" fill-rule="evenodd">
        <g id="Confirmation-and-prep" transform="translate(-801.000000, -835.000000)" fill-rule="nonzero">
            <g id="spa" transform="translate(801.000000, 835.000000)">
                <path d="M12.123,59.1157895 C12.123,59.1157895 10.1045,43.5267368 16.625,36.381692 C28.2595,23.6323431 47.169,30.8058324 51.22375,20.1608733 C52.63275,16.461848 51.22375,10.5755945 46.1755,6.39750487 C41.127,2.2194152 29.9225,0.621785575 19.3335,5.5374347 C8.7445,10.4528343 4.73625,20.1137154 3.69625,24.7077427 C-1.26725,46.6379103 12.123,59.1157895 12.123,59.1157895 Z" id="Shape" fill="#F9545B"></path>
                <path d="M68.56675,24.3484444 C64.7675,15.5992827 56.92325,9.84976218 48.16425,8.3337232 C51.57675,12.2553138 52.42575,17.0042885 51.2235,20.1611228 C49.43975,24.8444756 44.78025,26.0788148 39.1305,27.0783626 C48.55325,28.1155867 57.169,34.028538 61.20875,43.3311189 C62.69075,46.7439532 63.56175,50.2930214 63.608,53.7934347 C70.799,46.1089435 73.0235,34.6116491 68.56675,24.3484444 Z" id="Shape" fill="#FF6E79"></path>
                <path d="M60.55675,87.344655 L46.87,87.344655 L45.83375,77.962729 C56.16025,74.5389162 63.60775,65.8174503 63.60775,54.3625731 L63.60775,53.7921871 C63.56125,50.2920234 62.69025,46.7429552 61.2085,43.3303704 C57.16875,34.02754 48.553,28.1148382 39.13025,27.077614 C31.938,28.3498791 23.1405,29.2413879 16.62475,36.381692 C10.36875,43.2373021 11.973,57.8634854 12.11325,59.0379415 C13.82525,68.0892632 20.46525,74.8929747 29.2205,77.8878752 L28.1795,87.3444055 L14.727,87.3444055 C8.74,87.3444055 3.88375,92.188694 3.88375,98.1640234 L3.88375,125.255361 L71.397,125.255361 L71.397,98.1642729 C71.3975,92.188694 66.544,87.344655 60.55675,87.344655 Z" id="Shape" fill="#FFDAAE"></path>
                <ellipse id="Oval" fill="#65EAEA" cx="51.5645" cy="50.7004756" rx="9.1115" ry="9.09373879"></ellipse>
                <ellipse id="Oval" fill="#65EAEA" cx="23.35475" cy="50.7004756" rx="9.1115" ry="9.09373879"></ellipse>
                <path d="M37.46,72.5455595 C35.877,72.5455595 34.29425,71.9729279 33.032,70.8276647 C32.01025,69.9007251 31.935,68.3225575 32.86375,67.3030487 C33.79275,66.2832904 35.3735,66.2084366 36.39525,67.1353762 C37.00225,67.6863002 37.91775,67.6863002 38.52475,67.1353762 C39.546,66.2084366 41.1275,66.28354 42.05625,67.3030487 C42.985,68.3225575 42.90975,69.9007251 41.888,70.8276647 C40.62575,71.9729279 39.043,72.5455595 37.46,72.5455595 Z" id="Shape" fill="#000000"></path>
                <polygon id="Rectangle-path" fill="#FF8C5A" points="14.94975 106.298885 59.9695 106.298885 59.9695 125.254113 14.94975 125.254113"></polygon>
                <path d="M60.55675,84.8492788 L49.10925,84.8492788 L48.53275,79.6294737 C53.3835,77.6735439 57.51525,74.6162651 60.5655,70.7073996 C64.112,66.1625263 66.018,60.6547836 66.1,54.7578012 C73.59075,46.1907836 75.47325,33.978386 70.86075,23.3561326 C66.96975,14.395883 59.0045,7.97467446 49.44475,6.03646004 C48.931,5.49876023 48.375,4.97677973 47.77075,4.47675634 C44.742,1.96990253 40.20425,0.403961014 34.9935,0.0673684211 C29.3605,-0.295423002 23.58275,0.812912281 18.2795,3.27510331 C5.20325,9.34499805 1.80625,21.7355478 1.25825,24.1578168 C-1.46125,36.1721014 1.129,45.4874074 3.78125,51.1865263 C6.02325,56.0048655 8.6745,59.1177856 9.83175,60.347384 C11.7525,68.9391033 17.88125,75.9603899 26.5245,79.5369045 L25.9395,84.8495283 L14.7275,84.8495283 C7.37,84.8495283 1.38425,90.8226121 1.38425,98.1642729 L1.38425,125.25561 C1.38425,126.633669 2.50375,127.750737 3.88425,127.750737 L14.94975,127.750737 L59.9705,127.750737 L71.398,127.750737 C72.7785,127.750737 73.898,126.633669 73.898,125.25561 L73.898,98.1642729 C73.89775,90.8223626 67.913,84.8492788 60.55675,84.8492788 Z M66.27275,25.3407563 C69.42475,32.5995789 68.94525,40.7421754 65.2365,47.3644912 C65.1805,47.1449201 65.1215,46.9253489 65.06,46.7052788 C65.041,46.6366628 65.02025,46.5680468 65.0005,46.4994308 C64.95575,46.3429864 64.91025,46.1862924 64.86275,46.0295984 C64.836,45.9410214 64.80775,45.8524444 64.78,45.7638674 C64.737,45.6261365 64.6935,45.488655 64.64825,45.350924 C64.61725,45.2563587 64.5855,45.1617934 64.5535,45.0672281 C64.5085,44.9337388 64.4625,44.8002495 64.4155,44.6665107 C64.382,44.5714464 64.34825,44.4763821 64.31375,44.3813177 C64.2645,44.2453333 64.21375,44.1090994 64.1625,43.9728655 C64.128,43.8815439 64.094,43.7902222 64.05875,43.6989006 C64.00125,43.550191 63.942,43.4014815 63.882,43.2525224 C63.8505,43.1741754 63.82,43.096078 63.788,43.0179805 C63.695,42.7916725 63.6,42.565115 63.5015,42.3385575 C63.38325,42.0660897 63.2595,41.796616 63.1335,41.5288889 C63.0985,41.4545341 63.063,41.3804288 63.02725,41.3065731 C62.9235,41.0907446 62.8175,40.8766628 62.70875,40.664078 C62.68025,40.6081871 62.6525,40.5520468 62.62375,40.4961559 C62.4895,40.2379103 62.35175,39.9819103 62.2105,39.7284055 C62.176,39.6662768 62.1405,39.6051462 62.1055,39.5435166 C61.9915,39.3421598 61.87525,39.1425497 61.75675,38.9444366 C61.715,38.8748226 61.67375,38.8049591 61.6315,38.7358441 C61.48075,38.488577 61.3275,38.242807 61.17,38.0005302 C61.152,37.9728343 61.13325,37.9458869 61.115,37.918191 C60.9725,37.700616 60.827,37.4855361 60.67925,37.2722027 C60.631,37.2025887 60.58225,37.1332242 60.5335,37.0641092 C60.39425,36.8667446 60.253,36.6713762 60.109,36.4780039 C60.0775,36.4355867 60.04675,36.3926706 60.015,36.3502534 C59.843,36.1212008 59.66725,35.8953918 59.48875,35.6718285 C59.4405,35.6114464 59.3915,35.5518129 59.34275,35.4916803 C59.201,35.3167719 59.05725,35.1436101 58.91175,34.9721949 C58.8615,34.9130604 58.81175,34.8534269 58.761,34.7947914 C58.5745,34.5787135 58.38575,34.3648811 58.19325,34.1542924 C58.1585,34.1163665 58.123,34.0791891 58.088,34.0415127 C57.92475,33.8648577 57.7595,33.6901988 57.592,33.5175361 C57.533,33.456655 57.47375,33.3957739 57.41425,33.3353918 C57.23675,33.1552437 57.05725,32.9770916 56.87525,32.8016842 C56.8485,32.7757349 56.82225,32.7492865 56.7955,32.7235867 C56.58975,32.5267212 56.3805,32.3335984 56.16925,32.1427212 C56.109,32.0883275 56.048,32.0344327 55.9875,31.980538 C55.81975,31.8313294 55.65025,31.684117 55.47925,31.5389006 C55.424,31.4919922 55.369,31.4443353 55.31325,31.3976764 C55.09575,31.2155322 54.876,31.0363821 54.6535,30.8607251 C54.604,30.8215517 54.55375,30.7836257 54.504,30.7447018 C54.32225,30.6029786 54.13875,30.4632515 53.95375,30.32577 C53.88675,30.276117 53.82,30.2262144 53.7525,30.1770604 C53.52875,30.0133801 53.30325,29.8521949 53.07475,29.6947524 C53.06575,29.6885146 53.057,29.6822768 53.04825,29.676039 C52.8125,29.5141053 52.57375,29.3566628 52.33325,29.2014659 C52.26375,29.1565536 52.19375,29.1121404 52.12375,29.0679766 C51.93,28.9449669 51.73475,28.8242027 51.538,28.7059337 C51.48225,28.672499 51.42725,28.6380663 51.37125,28.6048811 C51.127,28.4599142 50.8805,28.3184405 50.63175,28.1802105 C50.57,28.1460273 50.5075,28.1125926 50.4455,28.0786589 C50.24675,27.9701209 50.04675,27.8635789 49.8455,27.7595322 C49.77325,27.7221053 49.70125,27.6846784 49.62875,27.6477505 C49.3735,27.5182534 49.117,27.391501 48.858,27.2694893 C48.82975,27.2560156 48.801,27.24354 48.77275,27.2303158 C48.598,27.1484756 48.423,27.0676335 48.2465,26.9892865 C48.51825,26.8450682 48.78225,26.6911189 49.04075,26.5304327 C49.06625,26.5147135 49.092,26.4992437 49.1175,26.4832749 C49.23075,26.4119142 49.342,26.3380585 49.4525,26.2632047 C49.483,26.2424951 49.5135,26.2220351 49.544,26.2013255 C49.6525,26.1264717 49.75925,26.0496218 49.865,25.9712749 C49.8945,25.9493177 49.924,25.9273606 49.95325,25.905154 C50.05975,25.8245614 50.165,25.7427212 50.2685,25.6586355 C50.29275,25.638924 50.31675,25.6184639 50.341,25.5985029 C50.4485,25.5094269 50.55525,25.4191033 50.6595,25.3260351 C50.6695,25.3170526 50.67925,25.3075712 50.6895,25.2983392 C51.04125,24.9812086 51.37425,24.6398752 51.68575,24.270347 C51.69025,24.2651072 51.695,24.260117 51.6995,24.2548772 C51.77825,24.1608109 51.8545,24.063501 51.9305,23.9659415 C51.96625,23.9202807 52.0025,23.8753684 52.0375,23.8287096 C52.10325,23.7413801 52.16725,23.651306 52.23075,23.561232 C52.27375,23.5001014 52.31675,23.4389708 52.359,23.3765926 C52.41625,23.2917583 52.47225,23.2051774 52.5275,23.117848 C52.57375,23.0447407 52.61925,22.9706355 52.664,22.8957817 C52.714,22.8124444 52.7635,22.7286082 52.8115,22.6430253 C52.8595,22.5579415 52.906,22.4706121 52.95225,22.3830331 C52.995,22.302191 53.03825,22.2215984 53.0795,22.1387602 C53.13025,22.0372086 53.1785,21.9324133 53.22675,21.8276179 C53.261,21.7535127 53.2965,21.680655 53.32975,21.6050526 C53.39575,21.4540975 53.45875,21.2986511 53.52025,21.1414581 C53.53275,21.1095205 53.5465,21.0798285 53.55875,21.0476413 C53.613,20.9051696 53.66375,20.7597037 53.7115,20.6119922 C54.52825,18.1303392 54.40375,15.2779103 53.44425,12.4985887 C59.137,14.9722573 63.7415,19.5111423 66.27275,25.3407563 Z M6.135,25.2574191 C6.593,23.2343704 9.432,12.8853333 20.38825,7.79976608 C24.6195,5.83535283 29.01525,4.99249903 32.9815,4.99249903 C37.873,4.99249903 42.111,6.27499415 44.57975,8.31825341 C45.36475,8.96798441 46.04325,9.66312671 46.62075,10.3822222 C46.6215,10.3829708 46.622,10.3839688 46.62275,10.3847173 C47.29175,11.2180897 47.825,12.0831501 48.23125,12.9457154 C48.242,12.9684211 48.252,12.9911267 48.2625,13.0138324 C48.30225,13.0994152 48.34025,13.1849981 48.3775,13.2703314 C48.40325,13.3297154 48.42825,13.3890994 48.45275,13.4482339 C48.47025,13.490152 48.48725,13.5320702 48.504,13.5739883 C49.30375,15.5798207 49.3985,17.4786121 49.02725,18.8409513 C49.022,18.8596647 49.01675,18.8781287 49.01125,18.8965926 C48.99625,18.9492398 48.98075,19.0013879 48.9645,19.0522885 C48.94475,19.1129201 48.924,19.1725536 48.90225,19.2311891 C48.897,19.2454113 48.89225,19.2603821 48.887,19.2746043 C48.87875,19.2958129 48.86975,19.3162729 48.8615,19.337232 C48.8285,19.4215673 48.7945,19.5049045 48.75875,19.5862456 C48.7375,19.6349006 48.7145,19.681809 48.692,19.7294659 C48.66775,19.781115 48.64375,19.8327641 48.6185,19.8831657 C48.58975,19.9403041 48.5595,19.9964444 48.529,20.0523353 C48.5095,20.0882651 48.49,20.1244444 48.46975,20.1596257 C48.4325,20.2249981 48.39425,20.2891228 48.3545,20.352499 C48.34225,20.37246 48.3295,20.3921715 48.317,20.411883 C47.193,22.1649591 45.2145,23.1440468 42.1955,23.8983236 C40.64225,24.281575 38.83075,24.6036959 36.7475,24.9552593 C36.4955,24.9976764 36.2405,25.0408421 35.98425,25.0845068 C31.75275,25.8036023 26.958,26.7010994 22.422,28.9639298 C20.2125,30.0662768 18.0645,31.4914932 16.0735,33.3808031 C15.84475,33.5978791 15.6175,33.8199454 15.393,34.0494971 C15.1855,34.2615828 14.98,34.4791579 14.7765,34.7022222 C14.66025,34.8294737 14.547,34.9592203 14.4355,35.0907135 C14.39575,35.1376218 14.3575,35.1855283 14.3185,35.2329357 C14.24825,35.318269 14.178,35.4036023 14.1095,35.4904327 C14.06275,35.5498168 14.01725,35.6099493 13.97125,35.6700819 C13.9135,35.7456842 13.85575,35.8215361 13.7995,35.898386 C13.7495,35.9662534 13.7005,36.0348694 13.65175,36.1034854 C13.60225,36.1733489 13.553,36.243462 13.5045,36.3140741 C13.45275,36.3894269 13.4015,36.4652788 13.351,36.5416296 C13.30925,36.6047563 13.26825,36.6683821 13.22725,36.7320078 C13.17275,36.8168421 13.11825,36.9019259 13.06525,36.9880078 C13.03425,37.0384094 13.00375,37.0895595 12.97325,37.14046 C12.91275,37.2407641 12.85225,37.3413177 12.7935,37.4431189 C12.7855,37.4570916 12.778,37.4710643 12.77,37.485037 C10.4045,41.6169669 9.59025,46.8517427 9.384,51.1762963 C6.4095,45.7838285 3.48525,36.9643041 6.135,25.2574191 Z M17.44975,122.760234 L17.44975,108.79501 L57.4705,108.79501 L57.4705,122.760234 L17.44975,122.760234 Z M68.89775,122.760234 L62.47025,122.760234 L62.47025,106.299883 C62.47025,104.921825 61.35075,103.804756 59.97025,103.804756 L14.94975,103.804756 C13.56925,103.804756 12.44975,104.921825 12.44975,106.299883 L12.44975,122.760234 L6.38425,122.760234 L6.38425,98.1640234 C6.38425,93.5737388 10.127,89.8395322 14.7275,89.8395322 L28.18,89.8395322 C29.45525,89.8395322 30.52575,88.8819025 30.665,87.6168733 L31.706,78.1603431 C31.83375,76.9998596 31.13825,75.9059961 30.0315,75.5274854 C21.85725,72.7316959 16.0895,66.4302534 14.58625,58.6609279 C14.586,58.6596803 14.586,58.6584327 14.58575,58.6571852 C14.57575,58.5686082 14.56025,58.4243899 14.542,58.2327641 C16.67325,60.7129201 19.83225,62.2890916 23.35525,62.2890916 C29.75775,62.2890916 34.96675,57.0902456 34.96675,50.7002261 C34.96675,44.3102066 29.75775,39.1113606 23.35525,39.1113606 C20.73225,39.1113606 18.3105,39.9849045 16.3645,41.4542846 C16.82325,40.389115 17.376,39.4107758 18.0415,38.5701676 C18.0465,38.5639298 18.0515,38.5579415 18.0565,38.5517037 C18.191,38.3827836 18.3295,38.2191033 18.47325,38.0616608 C18.6405,37.878269 18.80975,37.6996179 18.9805,37.5252086 C24.281,32.1200156 31.33475,30.9293411 37.581,29.8749006 C38.09725,29.7878207 38.61075,29.7007407 39.121,29.6121637 C39.144,29.6081715 39.168,29.6041793 39.191,29.6001871 C39.276,29.6106667 39.361,29.6211462 39.44575,29.6326238 C39.5795,29.6505887 39.713,29.6690526 39.846,29.6892632 C39.98475,29.7102222 40.12275,29.7329279 40.26075,29.7561326 C40.393,29.7783392 40.52525,29.8010448 40.657,29.8254971 C40.79475,29.8509474 40.93175,29.8783938 41.06875,29.9060897 C41.19925,29.932538 41.32975,29.9592359 41.4595,29.9876803 C41.59625,30.0176218 41.7325,30.0495595 41.86875,30.0819961 C41.9975,30.1126862 42.12625,30.1433762 42.2545,30.1758129 C42.39025,30.2102456 42.52525,30.246924 42.66,30.2836023 C42.78675,30.3182846 42.9135,30.3527173 43.0395,30.3893957 C43.17425,30.4283197 43.30825,30.4694893 43.44225,30.5106589 C43.567,30.5490838 43.6915,30.5875088 43.8155,30.6276803 C43.9495,30.671345 44.0825,30.7170058 44.2155,30.7626667 C44.33775,30.8048343 44.46,30.8467524 44.5815,30.8906667 C44.71425,30.9385731 44.846,30.9887251 44.97775,31.0391267 C45.09775,31.085037 45.218,31.1304483 45.33725,31.1781053 C45.46875,31.2307524 45.59925,31.2853957 45.72975,31.340039 C45.84725,31.389193 45.965,31.438347 46.0815,31.4892476 C46.2115,31.5461365 46.3405,31.605271 46.4695,31.6641559 C46.58475,31.7170526 46.70025,31.7694503 46.8145,31.8238441 C46.943,31.8852242 47.0705,31.9486004 47.198,32.0119766 C47.31075,32.068117 47.4235,32.1235088 47.53525,32.1813957 C47.66225,32.2470175 47.788,32.314885 47.91375,32.3827524 C48.02375,32.4421365 48.13425,32.5007719 48.24325,32.561653 C48.36875,32.6317661 48.493,32.7041248 48.617,32.7764834 C48.72425,32.8388616 48.83175,32.9004912 48.938,32.9643665 C49.06175,33.0387212 49.184,33.1155712 49.30625,33.191922 C49.41075,33.2572943 49.51575,33.3219181 49.61925,33.3887875 C49.741,33.467384 49.86125,33.5487251 49.9815,33.6293177 C50.08325,33.6976842 50.1855,33.7650526 50.28625,33.8349162 C50.406,33.9177544 50.52375,34.0030877 50.64225,34.0881715 C50.741,34.1592827 50.8405,34.2293957 50.93825,34.3020039 C51.05625,34.3893333 51.17225,34.4791579 51.2885,34.5684834 C51.38425,34.6420897 51.4805,34.7146979 51.575,34.7895517 C51.69075,34.8811228 51.80425,34.9751891 51.91825,35.0687563 C52.011,35.1448577 52.1045,35.2202105 52.196,35.2975595 C52.30925,35.3933723 52.4205,35.4919298 52.53225,35.5897388 C52.62175,35.6680858 52.712,35.7456842 52.80025,35.8255283 C52.9115,35.9258324 53.02025,36.0288811 53.12975,36.1311813 C53.21575,36.2115244 53.30275,36.2911189 53.3875,36.3729591 C53.4965,36.4777544 53.603,36.5852943 53.71,36.6920858 C53.7925,36.774425 53.876,36.8557661 53.95725,36.9393528 C54.06375,37.0486394 54.16725,37.1604211 54.27175,37.2717037 C54.351,37.356039 54.43125,37.4393762 54.50925,37.5249591 C54.61325,37.6387368 54.71425,37.7552593 54.816,37.8710331 C54.89125,37.9568655 54.968,38.0414503 55.04225,38.1285302 C55.14375,38.2472982 55.24225,38.3685614 55.3415,38.4893255 C55.413,38.5764055 55.486,38.6622378 55.55625,38.7500663 C55.65575,38.8743236 55.752,39.0013255 55.84925,39.1278285 C55.91625,39.2149084 55.9845,39.3009903 56.0505,39.3890682 C56.1485,39.5200624 56.24325,39.6538012 56.33875,39.7870409 C56.4005,39.8731228 56.46375,39.9579571 56.5245,40.045037 C56.586,40.133115 56.6445,40.2234386 56.705,40.3125146 C55.15425,39.5450136 53.40975,39.1113606 51.56475,39.1113606 C45.16225,39.1113606 39.95325,44.3102066 39.95325,50.7002261 C39.95325,57.0902456 45.16225,62.2890916 51.56475,62.2890916 C55.369,62.2890916 58.75175,60.4536764 60.871,57.6234542 C59.66275,65.9521871 53.832,72.6817934 45.04575,75.5946043 C43.92675,75.9656296 43.21975,77.06623 43.349,78.2359454 L44.38525,87.6178713 C44.525,88.8824016 45.5955,89.8395322 46.87,89.8395322 L60.557,89.8395322 C65.15625,89.8395322 68.89775,93.5739883 68.89775,98.1640234 L68.89775,122.760234 L68.89775,122.760234 Z M16.7435,50.7004756 C16.7435,47.0618324 19.70925,44.1018635 23.355,44.1018635 C27.00075,44.1018635 29.9665,47.0620819 29.9665,50.7004756 C29.9665,54.3388694 27.00075,57.2990877 23.355,57.2990877 C19.7095,57.2990877 16.7435,54.3388694 16.7435,50.7004756 Z M58.17625,50.7004756 C58.17625,54.3391189 55.2105,57.2990877 51.56475,57.2990877 C47.919,57.2990877 44.95325,54.3388694 44.95325,50.7004756 C44.95325,47.0620819 47.919,44.1018635 51.56475,44.1018635 C55.2105,44.101614 58.17625,47.0618324 58.17625,50.7004756 Z" id="Shape" fill="#000000"></path>
                <path d="M58.86975,99.7179883 C58.70725,99.7179883 58.5445,99.7005224 58.38225,99.6680858 C58.222,99.6356491 58.06475,99.5882417 57.91475,99.5258635 C57.76225,99.4634854 57.61725,99.3861365 57.48225,99.2963119 C57.34725,99.2064873 57.21725,99.101692 57.10225,98.9869162 C56.63725,98.5228226 56.36975,97.8790799 56.36975,97.2228616 C56.36975,97.0606784 56.387,96.896 56.4195,96.7338168 C56.452,96.5766238 56.4995,96.4194308 56.562,96.2672281 C56.6245,96.1175205 56.702,95.9728031 56.792,95.8380663 C56.882,95.7008343 56.987,95.5735828 57.102,95.458807 C57.217,95.3437817 57.34675,95.2392359 57.482,95.1469162 C57.617,95.0570916 57.762,94.9797427 57.9145,94.9173645 C58.0645,94.8549864 58.22175,94.8075789 58.382,94.7751423 C58.7045,94.710269 59.037,94.710269 59.3595,94.7751423 C59.5195,94.8075789 59.6745,94.8549864 59.82675,94.9173645 C59.977,94.9797427 60.122,95.0570916 60.257,95.1469162 C60.3945,95.2392359 60.522,95.3437817 60.637,95.458807 C61.1045,95.9229006 61.36975,96.5666433 61.36975,97.2228616 C61.36975,97.8790799 61.1045,98.5228226 60.637,98.9869162 C60.522,99.101692 60.3945,99.2064873 60.257,99.2963119 C60.122,99.3861365 59.977,99.4634854 59.82675,99.5258635 C59.6745,99.5882417 59.51925,99.6356491 59.3595,99.6680858 C59.19725,99.7005224 59.0345,99.7179883 58.86975,99.7179883 Z" id="Shape" fill="#000000"></path>
                <path d="M49.73125,99.7174893 L14.94975,99.7174893 C13.56925,99.7174893 12.44975,98.6004211 12.44975,97.2223626 C12.44975,95.8443041 13.56925,94.7272359 14.94975,94.7272359 L49.73125,94.7272359 C51.11175,94.7272359 52.23125,95.8443041 52.23125,97.2223626 C52.23125,98.6004211 51.11175,99.7174893 49.73125,99.7174893 Z" id="Shape" fill="#000000"></path>
            </g>
        </g>
    </g>
</svg>